{
  "version": "0.6.2c",
  "modules": [
    {
      "plugin": "Core",
      "version": "0.6.2c",
      "model": "AudioInterface",
      "params": [],
      "data": {
        "audio": {
          "driver": 5,
          "deviceName": "Apple Inc.: Built-in Output",
          "offset": 0,
          "maxChannels": 8,
          "sampleRate": 44100,
          "blockSize": 256
        }
      },
      "pos": [
        91,
        0
      ]
    },
    {
      "plugin": "JW-Modules",
      "version": "0.6.3",
      "model": "FullScope",
      "params": [
        {
          "paramId": 1,
          "value": 0.0
        },
        {
          "paramId": 3,
          "value": 0.0
        },
        {
          "paramId": 0,
          "value": 1.0
        },
        {
          "paramId": 2,
          "value": 1.0
        },
        {
          "paramId": 8,
          "value": 0.0
        },
        {
          "paramId": 4,
          "value": -14.0
        }
      ],
      "data": {
        "lissajous": 1,
        "external": 0
      },
      "width": 345.0,
      "height": 380.0,
      "pos": [
        101,
        0
      ]
    },
    {
      "plugin": "AS",
      "version": "0.6.13",
      "model": "Mixer4ch",
      "params": [
        {
          "paramId": 5,
          "value": -1.0
        },
        {
          "paramId": 6,
          "value": 1.0
        },
        {
          "paramId": 7,
          "value": 0.0
        },
        {
          "paramId": 8,
          "value": 0.0
        },
        {
          "paramId": 1,
          "value": 0.800000012
        },
        {
          "paramId": 2,
          "value": 0.800000012
        },
        {
          "paramId": 3,
          "value": 0.800000012
        },
        {
          "paramId": 4,
          "value": 0.800000012
        },
        {
          "paramId": 9,
          "value": 0.0
        },
        {
          "paramId": 10,
          "value": 0.0
        },
        {
          "paramId": 11,
          "value": 0.0
        },
        {
          "paramId": 12,
          "value": 0.0
        },
        {
          "paramId": 0,
          "value": 0.800000012
        },
        {
          "paramId": 13,
          "value": 0.0
        }
      ],
      "data": {
        "as_Mixer4Mutes": [
          0,
          0,
          0,
          0,
          0
        ]
      },
      "pos": [
        75,
        0
      ]
    },
    {
      "plugin": "BaconMusic",
      "version": "0.6.3",
      "model": "ChipWaves",
      "params": [
        {
          "paramId": 1,
          "value": 2.94600105
        },
        {
          "paramId": 0,
          "value": 0.0
        }
      ],
      "pos": [
        33,
        0
      ]
    },
    {
      "plugin": "ArableInstruments",
      "version": "0.6.0",
      "model": "Joni",
      "params": [
        {
          "paramId": 0,
          "value": 0.245000005
        },
        {
          "paramId": 1,
          "value": 1.0
        },
        {
          "paramId": 2,
          "value": 0.0
        },
        {
          "paramId": 3,
          "value": 0.842000067
        },
        {
          "paramId": 4,
          "value": 1.0
        },
        {
          "paramId": 5,
          "value": 0.5
        },
        {
          "paramId": 6,
          "value": 1.0
        },
        {
          "paramId": 7,
          "value": 0.756500006
        },
        {
          "paramId": 8,
          "value": 0.667999983
        },
        {
          "paramId": 9,
          "value": 0.885500014
        },
        {
          "paramId": 10,
          "value": 0.0
        }
      ],
      "data": {
        "playbackmode": 0,
        "lofi": 0,
        "mono": 0,
        "freeze": 0,
        "buffersize": 1
      },
      "pos": [
        41,
        0
      ]
    },
    {
      "plugin": "SonusModular",
      "version": "0.6.2",
      "model": "Pusher",
      "params": [
        {
          "paramId": 1,
          "value": 5.0
        },
        {
          "paramId": 3,
          "value": 5.0
        },
        {
          "paramId": 5,
          "value": 5.0
        },
        {
          "paramId": 7,
          "value": 5.0
        },
        {
          "paramId": 0,
          "value": 0.0
        },
        {
          "paramId": 2,
          "value": 0.0
        },
        {
          "paramId": 4,
          "value": 0.0
        },
        {
          "paramId": 6,
          "value": 0.0
        }
      ],
      "pos": [
        38,
        1
      ]
    }
  ],
  "wires": [
    {
      "color": "#c91847",
      "outputModuleId": 2,
      "outputId": 0,
      "inputModuleId": 0,
      "inputId": 0
    },
    {
      "color": "#0c8e15",
      "outputModuleId": 2,
      "outputId": 1,
      "inputModuleId": 0,
      "inputId": 1
    },
    {
      "color": "#0986ad",
      "outputModuleId": 2,
      "outputId": 0,
      "inputModuleId": 1,
      "inputId": 0
    },
    {
      "color": "#c9b70e",
      "outputModuleId": 2,
      "outputId": 1,
      "inputModuleId": 1,
      "inputId": 1
    },
    {
      "color": "#c9b70e",
      "outputModuleId": 3,
      "outputId": 1,
      "inputModuleId": 4,
      "inputId": 9
    },
    {
      "color": "#c91847",
      "outputModuleId": 3,
      "outputId": 0,
      "inputModuleId": 4,
      "inputId": 10
    },
    {
      "color": "#0c8e15",
      "outputModuleId": 4,
      "outputId": 0,
      "inputModuleId": 2,
      "inputId": 1
    },
    {
      "color": "#0986ad",
      "outputModuleId": 4,
      "outputId": 1,
      "inputModuleId": 2,
      "inputId": 4
    },
    {
      "color": "#c9b70e",
      "outputModuleId": 5,
      "outputId": 0,
      "inputModuleId": 4,
      "inputId": 1
    }
  ]
}