{
  "version": "0.6.2c",
  "modules": [
    {
      "plugin": "Core",
      "version": "0.6.2c",
      "model": "AudioInterface",
      "params": [],
      "data": {
        "audio": {
          "driver": 5,
          "deviceName": "Apple Inc.: Built-in Output",
          "offset": 0,
          "maxChannels": 8,
          "sampleRate": 44100,
          "blockSize": 256
        }
      },
      "pos": [
        83,
        0
      ]
    },
    {
      "plugin": "JW-Modules",
      "version": "0.6.3",
      "model": "FullScope",
      "params": [
        {
          "paramId": 1,
          "value": 0.0
        },
        {
          "paramId": 3,
          "value": 0.0
        },
        {
          "paramId": 0,
          "value": 1.0
        },
        {
          "paramId": 2,
          "value": 1.0
        },
        {
          "paramId": 8,
          "value": 0.0
        },
        {
          "paramId": 4,
          "value": -14.0
        }
      ],
      "data": {
        "lissajous": 1,
        "external": 0
      },
      "width": 345.0,
      "height": 380.0,
      "pos": [
        77,
        1
      ]
    },
    {
      "plugin": "AS",
      "version": "0.6.13",
      "model": "Mixer4ch",
      "params": [
        {
          "paramId": 5,
          "value": -0.255000025
        },
        {
          "paramId": 6,
          "value": 0.215999991
        },
        {
          "paramId": 7,
          "value": 0.0
        },
        {
          "paramId": 8,
          "value": 0.0
        },
        {
          "paramId": 1,
          "value": 0.905000269
        },
        {
          "paramId": 2,
          "value": 0.872000158
        },
        {
          "paramId": 3,
          "value": 0.800000012
        },
        {
          "paramId": 4,
          "value": 0.800000012
        },
        {
          "paramId": 9,
          "value": 0.0
        },
        {
          "paramId": 10,
          "value": 0.0
        },
        {
          "paramId": 11,
          "value": 0.0
        },
        {
          "paramId": 12,
          "value": 0.0
        },
        {
          "paramId": 0,
          "value": 0.800000012
        },
        {
          "paramId": 13,
          "value": 0.0
        }
      ],
      "data": {
        "as_Mixer4Mutes": [
          0,
          0,
          0,
          0,
          0
        ]
      },
      "pos": [
        67,
        0
      ]
    },
    {
      "plugin": "ImpromptuModular",
      "version": "0.6.17",
      "model": "Clocked",
      "params": [
        {
          "paramId": 0,
          "value": 137.0
        },
        {
          "paramId": 12,
          "value": 0.0
        },
        {
          "paramId": 13,
          "value": 0.0
        },
        {
          "paramId": 18,
          "value": 0.0
        },
        {
          "paramId": 19,
          "value": 0.0
        },
        {
          "paramId": 4,
          "value": 0.0
        },
        {
          "paramId": 8,
          "value": 0.339499444
        },
        {
          "paramId": 1,
          "value": -4.0
        },
        {
          "paramId": 5,
          "value": 0.0
        },
        {
          "paramId": 9,
          "value": 0.0
        },
        {
          "paramId": 15,
          "value": 0.0
        },
        {
          "paramId": 2,
          "value": -6.0
        },
        {
          "paramId": 6,
          "value": 0.0
        },
        {
          "paramId": 10,
          "value": 0.0
        },
        {
          "paramId": 16,
          "value": 0.0
        },
        {
          "paramId": 3,
          "value": -8.0
        },
        {
          "paramId": 7,
          "value": 0.0
        },
        {
          "paramId": 11,
          "value": 0.0
        },
        {
          "paramId": 17,
          "value": 0.0
        }
      ],
      "data": {
        "running": false,
        "panelTheme": 0,
        "expansion": 0,
        "displayDelayNoteMode": true,
        "bpmDetectionMode": false,
        "emitResetOnStopRun": false,
        "ppqn": 4,
        "resetClockOutputsHigh": true
      },
      "pos": [
        0,
        0
      ]
    },
    {
      "plugin": "Bogaudio",
      "version": "0.6.14",
      "model": "Bogaudio-LLFO",
      "params": [
        {
          "paramId": 0,
          "value": -6.22049952
        },
        {
          "paramId": 1,
          "value": 0.0
        },
        {
          "paramId": 2,
          "value": 2.0
        },
        {
          "paramId": 3,
          "value": -0.0749999583
        },
        {
          "paramId": 4,
          "value": 0.163000003
        }
      ],
      "data": {},
      "pos": [
        26,
        1
      ]
    },
    {
      "plugin": "JW-Modules",
      "version": "0.6.3",
      "model": "Quantizer",
      "params": [
        {
          "paramId": 0,
          "value": 0.0
        },
        {
          "paramId": 1,
          "value": 14.0
        }
      ],
      "data": {},
      "pos": [
        29,
        1
      ]
    },
    {
      "plugin": "Bogaudio",
      "version": "0.6.14",
      "model": "Bogaudio-SampleHold",
      "params": [
        {
          "paramId": 0,
          "value": 0.0
        },
        {
          "paramId": 1,
          "value": 0.0
        },
        {
          "paramId": 2,
          "value": 0.0
        },
        {
          "paramId": 3,
          "value": 0.0
        }
      ],
      "pos": [
        20,
        0
      ]
    },
    {
      "plugin": "Bogaudio",
      "version": "0.6.14",
      "model": "Bogaudio-Shaper",
      "params": [
        {
          "paramId": 0,
          "value": 0.0599999651
        },
        {
          "paramId": 1,
          "value": 0.319999993
        },
        {
          "paramId": 2,
          "value": 0.319999993
        },
        {
          "paramId": 3,
          "value": 0.0700000003
        },
        {
          "paramId": 4,
          "value": 1.0
        },
        {
          "paramId": 5,
          "value": 0.100000001
        },
        {
          "paramId": 6,
          "value": 0.0
        },
        {
          "paramId": 7,
          "value": 1.0
        },
        {
          "paramId": 8,
          "value": 1.0
        }
      ],
      "data": {
        "triggerOnLoad": true,
        "shouldTriggerOnLoad": false
      },
      "pos": [
        42,
        1
      ]
    },
    {
      "plugin": "VultModulesFree",
      "version": "0.6.26",
      "model": "Basal",
      "params": [
        {
          "paramId": 0,
          "value": 0.0
        },
        {
          "paramId": 1,
          "value": 0.0
        },
        {
          "paramId": 2,
          "value": 0.0
        },
        {
          "paramId": 4,
          "value": 0.657999814
        },
        {
          "paramId": 3,
          "value": 0.56400001
        },
        {
          "paramId": 5,
          "value": 0.438000083
        }
      ],
      "pos": [
        33,
        1
      ]
    },
    {
      "plugin": "Bogaudio",
      "version": "0.6.14",
      "model": "Bogaudio-UMix",
      "params": [
        {
          "paramId": 0,
          "value": 1.0
        }
      ],
      "data": {
        "sum": true
      },
      "pos": [
        39,
        1
      ]
    },
    {
      "plugin": "Bogaudio",
      "version": "0.6.14",
      "model": "Bogaudio-LLFO",
      "params": [
        {
          "paramId": 0,
          "value": -6.22049952
        },
        {
          "paramId": 1,
          "value": 0.0
        },
        {
          "paramId": 2,
          "value": 1.0
        },
        {
          "paramId": 3,
          "value": -0.065999575
        },
        {
          "paramId": 4,
          "value": 0.257499963
        }
      ],
      "data": {},
      "pos": [
        26,
        2
      ]
    },
    {
      "plugin": "JW-Modules",
      "version": "0.6.3",
      "model": "Quantizer",
      "params": [
        {
          "paramId": 0,
          "value": 0.0
        },
        {
          "paramId": 1,
          "value": 14.0
        }
      ],
      "data": {},
      "pos": [
        29,
        2
      ]
    },
    {
      "plugin": "VultModulesFree",
      "version": "0.6.26",
      "model": "Basal",
      "params": [
        {
          "paramId": 0,
          "value": 0.0
        },
        {
          "paramId": 1,
          "value": 0.0
        },
        {
          "paramId": 2,
          "value": 0.0
        },
        {
          "paramId": 4,
          "value": 0.657999814
        },
        {
          "paramId": 3,
          "value": 0.497999996
        },
        {
          "paramId": 5,
          "value": 0.555000067
        }
      ],
      "pos": [
        33,
        2
      ]
    },
    {
      "plugin": "Bogaudio",
      "version": "0.6.14",
      "model": "Bogaudio-UMix",
      "params": [
        {
          "paramId": 0,
          "value": 1.0
        }
      ],
      "data": {
        "sum": true
      },
      "pos": [
        39,
        2
      ]
    },
    {
      "plugin": "Bogaudio",
      "version": "0.6.14",
      "model": "Bogaudio-Shaper",
      "params": [
        {
          "paramId": 0,
          "value": 0.0255000275
        },
        {
          "paramId": 1,
          "value": 0.319999993
        },
        {
          "paramId": 2,
          "value": 0.462500066
        },
        {
          "paramId": 3,
          "value": 0.204999968
        },
        {
          "paramId": 4,
          "value": 1.0
        },
        {
          "paramId": 5,
          "value": 0.100000001
        },
        {
          "paramId": 6,
          "value": 0.0
        },
        {
          "paramId": 7,
          "value": 1.0
        },
        {
          "paramId": 8,
          "value": 1.0
        }
      ],
      "data": {
        "triggerOnLoad": true,
        "shouldTriggerOnLoad": false
      },
      "pos": [
        42,
        2
      ]
    },
    {
      "plugin": "VultModulesFree",
      "version": "0.6.26",
      "model": "Caudal",
      "params": [
        {
          "paramId": 0,
          "value": -0.446999997
        },
        {
          "paramId": 1,
          "value": 0.0
        },
        {
          "paramId": 2,
          "value": 0.0
        },
        {
          "paramId": 3,
          "value": 0.0
        },
        {
          "paramId": 4,
          "value": 0.0
        },
        {
          "paramId": 5,
          "value": 0.0
        },
        {
          "paramId": 6,
          "value": 0.0
        },
        {
          "paramId": 7,
          "value": 0.0
        }
      ],
      "data": {
        "phi1": 1.99481237,
        "phi2": 4.18302345,
        "phi3": 4.28595781,
        "phi4": 0.633382559,
        "w1": -0.617134392,
        "w2": 15.6413651,
        "w3": -17.0978222,
        "w4": 0.30025351,
        "store_phi1": 0.0,
        "store_phi2": 0.0,
        "store_phi3": 0.0,
        "store_phi4": 0.0,
        "store_w1": 0.0,
        "store_w2": 0.0,
        "store_w3": 0.0,
        "store_w4": 0.0
      },
      "pos": [
        23,
        0
      ]
    },
    {
      "plugin": "ImpromptuModular",
      "version": "0.6.17",
      "model": "Clocked",
      "params": [
        {
          "paramId": 0,
          "value": 128.0
        },
        {
          "paramId": 12,
          "value": 0.0
        },
        {
          "paramId": 13,
          "value": 0.0
        },
        {
          "paramId": 18,
          "value": 0.0
        },
        {
          "paramId": 19,
          "value": 0.0
        },
        {
          "paramId": 4,
          "value": 0.0
        },
        {
          "paramId": 8,
          "value": 0.5
        },
        {
          "paramId": 1,
          "value": 21.0
        },
        {
          "paramId": 5,
          "value": 0.0
        },
        {
          "paramId": 9,
          "value": 0.0
        },
        {
          "paramId": 15,
          "value": 0.0
        },
        {
          "paramId": 2,
          "value": 0.0
        },
        {
          "paramId": 6,
          "value": 0.0
        },
        {
          "paramId": 10,
          "value": 0.0
        },
        {
          "paramId": 16,
          "value": 0.0
        },
        {
          "paramId": 3,
          "value": 3.0
        },
        {
          "paramId": 7,
          "value": 0.0
        },
        {
          "paramId": 11,
          "value": 0.0
        },
        {
          "paramId": 17,
          "value": 0.0
        }
      ],
      "data": {
        "running": false,
        "panelTheme": 0,
        "expansion": 0,
        "displayDelayNoteMode": true,
        "bpmDetectionMode": false,
        "emitResetOnStopRun": false,
        "ppqn": 4,
        "resetClockOutputsHigh": true
      },
      "pos": [
        0,
        1
      ]
    },
    {
      "plugin": "cf",
      "version": "0.6.8",
      "model": "PLAY",
      "params": [
        {
          "paramId": 2,
          "value": 0.0
        },
        {
          "paramId": 0,
          "value": 0.0
        },
        {
          "paramId": 1,
          "value": 0.0
        }
      ],
      "data": {
        "lastPath": "/Users/bren.brightwell/Documents/Rack/samples/707 kick.wav"
      },
      "pos": [
        16,
        2
      ]
    },
    {
      "plugin": "Valley",
      "version": "0.6.16",
      "model": "Topograph",
      "params": [
        {
          "paramId": 2,
          "value": 0.0
        },
        {
          "paramId": 3,
          "value": 0.0
        },
        {
          "paramId": 4,
          "value": 0.0
        },
        {
          "paramId": 5,
          "value": 0.0
        },
        {
          "paramId": 6,
          "value": 0.5
        },
        {
          "paramId": 7,
          "value": 0.300499916
        },
        {
          "paramId": 8,
          "value": 0.695000052
        },
        {
          "paramId": 9,
          "value": 0.0
        },
        {
          "paramId": 0,
          "value": 0.0
        },
        {
          "paramId": 1,
          "value": 0.0
        }
      ],
      "data": {
        "sequencerMode": 0,
        "triggerOutputMode": 0,
        "accOutputMode": 0,
        "extClockResolution": 2,
        "chaosKnobMode": 0,
        "runMode": 0,
        "panelStyle": 0,
        "running": 1
      },
      "pos": [
        0,
        2
      ]
    },
    {
      "plugin": "cf",
      "version": "0.6.8",
      "model": "PLAY",
      "params": [
        {
          "paramId": 2,
          "value": 0.0
        },
        {
          "paramId": 0,
          "value": 0.0
        },
        {
          "paramId": 1,
          "value": 0.0
        }
      ],
      "data": {
        "lastPath": "/Users/bren.brightwell/Documents/Rack/samples/707 snare.wav"
      },
      "pos": [
        18,
        2
      ]
    },
    {
      "plugin": "cf",
      "version": "0.6.8",
      "model": "PLAY",
      "params": [
        {
          "paramId": 2,
          "value": 0.0
        },
        {
          "paramId": 0,
          "value": 0.0
        },
        {
          "paramId": 1,
          "value": 0.0
        }
      ],
      "data": {
        "lastPath": "/Users/bren.brightwell/Documents/Rack/samples/707 hat.wav"
      },
      "pos": [
        20,
        2
      ]
    },
    {
      "plugin": "Bogaudio",
      "version": "0.6.14",
      "model": "Bogaudio-UMix",
      "params": [
        {
          "paramId": 0,
          "value": 1.0
        }
      ],
      "data": {
        "sum": true
      },
      "pos": [
        22,
        2
      ]
    },
    {
      "plugin": "AS",
      "version": "0.6.13",
      "model": "WaveShaper",
      "params": [
        {
          "paramId": 0,
          "value": 1.39500046
        },
        {
          "paramId": 1,
          "value": 1.0
        },
        {
          "paramId": 2,
          "value": 1.0
        },
        {
          "paramId": 3,
          "value": 0.0
        }
      ],
      "data": {
        "as_FxBypass": [
          false
        ]
      },
      "pos": [
        20,
        1
      ]
    },
    {
      "plugin": "Bogaudio",
      "version": "0.6.14",
      "model": "Bogaudio-LLFO",
      "params": [
        {
          "paramId": 0,
          "value": -6.22049475
        },
        {
          "paramId": 1,
          "value": 0.0
        },
        {
          "paramId": 2,
          "value": 1.0
        },
        {
          "paramId": 3,
          "value": 0.0720004141
        },
        {
          "paramId": 4,
          "value": 0.386500031
        }
      ],
      "data": {},
      "pos": [
        55,
        1
      ]
    },
    {
      "plugin": "JW-Modules",
      "version": "0.6.3",
      "model": "Quantizer",
      "params": [
        {
          "paramId": 0,
          "value": 0.0
        },
        {
          "paramId": 1,
          "value": 14.0
        }
      ],
      "data": {},
      "pos": [
        61,
        1
      ]
    },
    {
      "plugin": "AudibleInstruments",
      "version": "0.6.3",
      "model": "Plaits",
      "params": [
        {
          "paramId": 0,
          "value": 0.0
        },
        {
          "paramId": 1,
          "value": 0.0
        },
        {
          "paramId": 2,
          "value": 0.0
        },
        {
          "paramId": 3,
          "value": 0.5
        },
        {
          "paramId": 4,
          "value": 0.5
        },
        {
          "paramId": 5,
          "value": 0.5
        },
        {
          "paramId": 6,
          "value": 1.0
        },
        {
          "paramId": 7,
          "value": 0.0
        },
        {
          "paramId": 8,
          "value": 1.0
        }
      ],
      "data": {
        "lowCpu": false,
        "model": 0,
        "lpgColor": 0.5,
        "decay": 0.5
      },
      "pos": [
        65,
        1
      ]
    },
    {
      "plugin": "Bogaudio",
      "version": "0.6.14",
      "model": "Bogaudio-UMix",
      "params": [
        {
          "paramId": 0,
          "value": 1.0
        }
      ],
      "data": {
        "sum": true
      },
      "pos": [
        52,
        1
      ]
    },
    {
      "plugin": "Bogaudio",
      "version": "0.6.14",
      "model": "Bogaudio-SampleHold",
      "params": [
        {
          "paramId": 0,
          "value": 0.0
        },
        {
          "paramId": 1,
          "value": 0.0
        },
        {
          "paramId": 2,
          "value": 0.0
        },
        {
          "paramId": 3,
          "value": 0.0
        }
      ],
      "pos": [
        58,
        1
      ]
    },
    {
      "plugin": "AS",
      "version": "0.6.13",
      "model": "Mixer4ch",
      "params": [
        {
          "paramId": 5,
          "value": -1.0
        },
        {
          "paramId": 6,
          "value": 0.996999979
        },
        {
          "paramId": 7,
          "value": 0.0
        },
        {
          "paramId": 8,
          "value": 0.0
        },
        {
          "paramId": 1,
          "value": 0.622999787
        },
        {
          "paramId": 2,
          "value": 0.622999668
        },
        {
          "paramId": 3,
          "value": 0.800000012
        },
        {
          "paramId": 4,
          "value": 0.800000012
        },
        {
          "paramId": 9,
          "value": 0.0
        },
        {
          "paramId": 10,
          "value": 0.0
        },
        {
          "paramId": 11,
          "value": 0.0
        },
        {
          "paramId": 12,
          "value": 0.0
        },
        {
          "paramId": 0,
          "value": 0.800000012
        },
        {
          "paramId": 13,
          "value": 0.0
        }
      ],
      "data": {
        "as_Mixer4Mutes": [
          0,
          0,
          0,
          0,
          0
        ]
      },
      "pos": [
        51,
        0
      ]
    },
    {
      "plugin": "Bogaudio",
      "version": "0.6.14",
      "model": "Bogaudio-Follow",
      "params": [
        {
          "paramId": 0,
          "value": 0.213000014
        },
        {
          "paramId": 1,
          "value": 1.0
        }
      ],
      "pos": [
        33,
        0
      ]
    },
    {
      "plugin": "Bogaudio",
      "version": "0.6.14",
      "model": "Bogaudio-Pressor",
      "params": [
        {
          "paramId": 0,
          "value": 0.0840000287
        },
        {
          "paramId": 1,
          "value": 0.494500011
        },
        {
          "paramId": 2,
          "value": 0.094000034
        },
        {
          "paramId": 3,
          "value": 0.371499807
        },
        {
          "paramId": 4,
          "value": 0.621000469
        },
        {
          "paramId": 5,
          "value": -0.161999941
        },
        {
          "paramId": 6,
          "value": 1.0
        },
        {
          "paramId": 7,
          "value": 1.0
        },
        {
          "paramId": 8,
          "value": 1.0
        },
        {
          "paramId": 9,
          "value": 1.0
        }
      ],
      "pos": [
        36,
        0
      ]
    },
    {
      "plugin": "Bogaudio",
      "version": "0.6.14",
      "model": "Bogaudio-AnalyzerXL",
      "params": [],
      "data": {
        "range": 0.0,
        "range_db": 80.0,
        "smooth": 0.25,
        "quality": "good",
        "window": "kaiser"
      },
      "pos": [
        52,
        2
      ]
    }
  ],
  "wires": [
    {
      "color": "#c91847",
      "outputModuleId": 2,
      "outputId": 0,
      "inputModuleId": 0,
      "inputId": 0
    },
    {
      "color": "#0c8e15",
      "outputModuleId": 2,
      "outputId": 1,
      "inputModuleId": 0,
      "inputId": 1
    },
    {
      "color": "#0986ad",
      "outputModuleId": 2,
      "outputId": 0,
      "inputModuleId": 1,
      "inputId": 0
    },
    {
      "color": "#c9b70e",
      "outputModuleId": 2,
      "outputId": 1,
      "inputModuleId": 1,
      "inputId": 1
    },
    {
      "color": "#0c8e15",
      "outputModuleId": 4,
      "outputId": 0,
      "inputModuleId": 6,
      "inputId": 1
    },
    {
      "color": "#0986ad",
      "outputModuleId": 6,
      "outputId": 0,
      "inputModuleId": 5,
      "inputId": 2
    },
    {
      "color": "#c9b70e",
      "outputModuleId": 3,
      "outputId": 1,
      "inputModuleId": 6,
      "inputId": 0
    },
    {
      "color": "#0c8e15",
      "outputModuleId": 5,
      "outputId": 0,
      "inputModuleId": 8,
      "inputId": 0
    },
    {
      "color": "#0986ad",
      "outputModuleId": 8,
      "outputId": 0,
      "inputModuleId": 7,
      "inputId": 0
    },
    {
      "color": "#c91847",
      "outputModuleId": 3,
      "outputId": 1,
      "inputModuleId": 9,
      "inputId": 0
    },
    {
      "color": "#0c8e15",
      "outputModuleId": 3,
      "outputId": 2,
      "inputModuleId": 9,
      "inputId": 1
    },
    {
      "color": "#0986ad",
      "outputModuleId": 9,
      "outputId": 0,
      "inputModuleId": 7,
      "inputId": 1
    },
    {
      "color": "#0c8e15",
      "outputModuleId": 10,
      "outputId": 0,
      "inputModuleId": 6,
      "inputId": 3
    },
    {
      "color": "#0986ad",
      "outputModuleId": 6,
      "outputId": 1,
      "inputModuleId": 11,
      "inputId": 2
    },
    {
      "color": "#c91847",
      "outputModuleId": 3,
      "outputId": 3,
      "inputModuleId": 6,
      "inputId": 2
    },
    {
      "color": "#0c8e15",
      "outputModuleId": 11,
      "outputId": 0,
      "inputModuleId": 12,
      "inputId": 0
    },
    {
      "color": "#c9b70e",
      "outputModuleId": 12,
      "outputId": 0,
      "inputModuleId": 14,
      "inputId": 0
    },
    {
      "color": "#0c8e15",
      "outputModuleId": 13,
      "outputId": 0,
      "inputModuleId": 14,
      "inputId": 1
    },
    {
      "color": "#0986ad",
      "outputModuleId": 3,
      "outputId": 1,
      "inputModuleId": 13,
      "inputId": 0
    },
    {
      "color": "#c9b70e",
      "outputModuleId": 3,
      "outputId": 3,
      "inputModuleId": 13,
      "inputId": 1
    },
    {
      "color": "#c91847",
      "outputModuleId": 15,
      "outputId": 0,
      "inputModuleId": 8,
      "inputId": 1
    },
    {
      "color": "#0c8e15",
      "outputModuleId": 15,
      "outputId": 1,
      "inputModuleId": 8,
      "inputId": 2
    },
    {
      "color": "#0986ad",
      "outputModuleId": 15,
      "outputId": 3,
      "inputModuleId": 12,
      "inputId": 1
    },
    {
      "color": "#c91847",
      "outputModuleId": 15,
      "outputId": 4,
      "inputModuleId": 12,
      "inputId": 2
    },
    {
      "color": "#0c8e15",
      "outputModuleId": 3,
      "outputId": 3,
      "inputModuleId": 15,
      "inputId": 2
    },
    {
      "color": "#c9b70e",
      "outputModuleId": 3,
      "outputId": 4,
      "inputModuleId": 16,
      "inputId": 4
    },
    {
      "color": "#c91847",
      "outputModuleId": 3,
      "outputId": 5,
      "inputModuleId": 16,
      "inputId": 5
    },
    {
      "color": "#0c8e15",
      "outputModuleId": 3,
      "outputId": 6,
      "inputModuleId": 16,
      "inputId": 6
    },
    {
      "color": "#c9b70e",
      "outputModuleId": 16,
      "outputId": 1,
      "inputModuleId": 18,
      "inputId": 0
    },
    {
      "color": "#c91847",
      "outputModuleId": 18,
      "outputId": 0,
      "inputModuleId": 17,
      "inputId": 0
    },
    {
      "color": "#0c8e15",
      "outputModuleId": 18,
      "outputId": 1,
      "inputModuleId": 19,
      "inputId": 0
    },
    {
      "color": "#0986ad",
      "outputModuleId": 18,
      "outputId": 2,
      "inputModuleId": 20,
      "inputId": 0
    },
    {
      "color": "#c9b70e",
      "outputModuleId": 17,
      "outputId": 0,
      "inputModuleId": 21,
      "inputId": 0
    },
    {
      "color": "#c91847",
      "outputModuleId": 19,
      "outputId": 0,
      "inputModuleId": 21,
      "inputId": 1
    },
    {
      "color": "#0c8e15",
      "outputModuleId": 20,
      "outputId": 0,
      "inputModuleId": 21,
      "inputId": 2
    },
    {
      "color": "#c9b70e",
      "outputModuleId": 15,
      "outputId": 8,
      "inputModuleId": 18,
      "inputId": 6
    },
    {
      "color": "#c91847",
      "outputModuleId": 15,
      "outputId": 11,
      "inputModuleId": 18,
      "inputId": 7
    },
    {
      "color": "#0c8e15",
      "outputModuleId": 15,
      "outputId": 5,
      "inputModuleId": 18,
      "inputId": 5
    },
    {
      "color": "#0986ad",
      "outputModuleId": 15,
      "outputId": 9,
      "inputModuleId": 18,
      "inputId": 2
    },
    {
      "color": "#c9b70e",
      "outputModuleId": 15,
      "outputId": 10,
      "inputModuleId": 18,
      "inputId": 3
    },
    {
      "color": "#c91847",
      "outputModuleId": 21,
      "outputId": 0,
      "inputModuleId": 22,
      "inputId": 0
    },
    {
      "color": "#0c8e15",
      "outputModuleId": 22,
      "outputId": 0,
      "inputModuleId": 2,
      "inputId": 7
    },
    {
      "color": "#0986ad",
      "outputModuleId": 15,
      "outputId": 2,
      "inputModuleId": 18,
      "inputId": 8
    },
    {
      "color": "#0c8e15",
      "outputModuleId": 16,
      "outputId": 2,
      "inputModuleId": 26,
      "inputId": 0
    },
    {
      "color": "#c91847",
      "outputModuleId": 16,
      "outputId": 3,
      "inputModuleId": 26,
      "inputId": 1
    },
    {
      "color": "#0c8e15",
      "outputModuleId": 23,
      "outputId": 0,
      "inputModuleId": 27,
      "inputId": 1
    },
    {
      "color": "#0986ad",
      "outputModuleId": 27,
      "outputId": 0,
      "inputModuleId": 24,
      "inputId": 2
    },
    {
      "color": "#c9b70e",
      "outputModuleId": 24,
      "outputId": 0,
      "inputModuleId": 25,
      "inputId": 7
    },
    {
      "color": "#c91847",
      "outputModuleId": 26,
      "outputId": 0,
      "inputModuleId": 25,
      "inputId": 5
    },
    {
      "color": "#0c8e15",
      "outputModuleId": 25,
      "outputId": 0,
      "inputModuleId": 28,
      "inputId": 1
    },
    {
      "color": "#0986ad",
      "outputModuleId": 15,
      "outputId": 7,
      "inputModuleId": 25,
      "inputId": 1
    },
    {
      "color": "#c91847",
      "outputModuleId": 15,
      "outputId": 6,
      "inputModuleId": 25,
      "inputId": 3
    },
    {
      "color": "#c9b70e",
      "outputModuleId": 28,
      "outputId": 0,
      "inputModuleId": 2,
      "inputId": 13
    },
    {
      "color": "#c91847",
      "outputModuleId": 28,
      "outputId": 1,
      "inputModuleId": 2,
      "inputId": 14
    },
    {
      "color": "#c91847",
      "outputModuleId": 25,
      "outputId": 1,
      "inputModuleId": 28,
      "inputId": 4
    },
    {
      "color": "#c91847",
      "outputModuleId": 7,
      "outputId": 0,
      "inputModuleId": 30,
      "inputId": 0
    },
    {
      "color": "#0c8e15",
      "outputModuleId": 14,
      "outputId": 0,
      "inputModuleId": 30,
      "inputId": 4
    },
    {
      "color": "#0986ad",
      "outputModuleId": 30,
      "outputId": 1,
      "inputModuleId": 2,
      "inputId": 1
    },
    {
      "color": "#c91847",
      "outputModuleId": 30,
      "outputId": 2,
      "inputModuleId": 2,
      "inputId": 4
    },
    {
      "color": "#0c8e15",
      "outputModuleId": 17,
      "outputId": 0,
      "inputModuleId": 29,
      "inputId": 2
    },
    {
      "color": "#c91847",
      "outputModuleId": 2,
      "outputId": 4,
      "inputModuleId": 31,
      "inputId": 0
    },
    {
      "color": "#0c8e15",
      "outputModuleId": 2,
      "outputId": 3,
      "inputModuleId": 31,
      "inputId": 1
    },
    {
      "color": "#0986ad",
      "outputModuleId": 2,
      "outputId": 2,
      "inputModuleId": 31,
      "inputId": 2
    },
    {
      "color": "#c9b70e",
      "outputModuleId": 28,
      "outputId": 3,
      "inputModuleId": 31,
      "inputId": 3
    },
    {
      "color": "#c91847",
      "outputModuleId": 28,
      "outputId": 2,
      "inputModuleId": 31,
      "inputId": 4
    },
    {
      "color": "#0c8e15",
      "outputModuleId": 15,
      "outputId": 7,
      "inputModuleId": 1,
      "inputId": 3
    },
    {
      "color": "#0986ad",
      "outputModuleId": 3,
      "outputId": 0,
      "inputModuleId": 30,
      "inputId": 1
    },
    {
      "color": "#c9b70e",
      "outputModuleId": 16,
      "outputId": 3,
      "inputModuleId": 27,
      "inputId": 0
    }
  ]
}