{
  "version": "0.6.2c",
  "modules": [
    {
      "plugin": "Core",
      "version": "0.6.2c",
      "model": "AudioInterface",
      "params": [],
      "data": {
        "audio": {
          "driver": 5,
          "deviceName": "Apple Inc.: Built-in Output",
          "offset": 0,
          "maxChannels": 8,
          "sampleRate": 44100,
          "blockSize": 256
        }
      },
      "pos": [
        0,
        2
      ]
    },
    {
      "plugin": "JW-Modules",
      "version": "0.6.3",
      "model": "FullScope",
      "params": [
        {
          "paramId": 1,
          "value": 0.0
        },
        {
          "paramId": 3,
          "value": 0.0
        },
        {
          "paramId": 0,
          "value": 1.0
        },
        {
          "paramId": 2,
          "value": 1.0
        },
        {
          "paramId": 8,
          "value": 0.0
        },
        {
          "paramId": 4,
          "value": -14.0
        }
      ],
      "data": {
        "lissajous": 1,
        "external": 0
      },
      "width": 345.0,
      "height": 380.0,
      "pos": [
        10,
        2
      ]
    },
    {
      "plugin": "JW-Modules",
      "version": "0.6.3",
      "model": "SimpleClock",
      "params": [
        {
          "paramId": 1,
          "value": 0.0
        },
        {
          "paramId": 0,
          "value": 1.0
        },
        {
          "paramId": 3,
          "value": 0.0
        },
        {
          "paramId": 2,
          "value": -2.0
        }
      ],
      "data": {
        "running": true
      },
      "pos": [
        29,
        1
      ]
    },
    {
      "plugin": "VultModulesFree",
      "version": "0.6.21",
      "model": "Basal",
      "params": [
        {
          "paramId": 0,
          "value": 0.0
        },
        {
          "paramId": 1,
          "value": 0.0
        },
        {
          "paramId": 2,
          "value": 0.0
        },
        {
          "paramId": 4,
          "value": 0.0
        },
        {
          "paramId": 3,
          "value": 1.0
        },
        {
          "paramId": 5,
          "value": 1.0
        }
      ],
      "pos": [
        61,
        1
      ]
    },
    {
      "plugin": "VultModulesFree",
      "version": "0.6.21",
      "model": "Basal",
      "params": [
        {
          "paramId": 0,
          "value": 0.0
        },
        {
          "paramId": 1,
          "value": 0.0
        },
        {
          "paramId": 2,
          "value": 0.0
        },
        {
          "paramId": 4,
          "value": 0.0
        },
        {
          "paramId": 3,
          "value": 1.0
        },
        {
          "paramId": 5,
          "value": 1.0
        }
      ],
      "pos": [
        67,
        1
      ]
    },
    {
      "plugin": "VultModulesFree",
      "version": "0.6.21",
      "model": "Caudal",
      "params": [
        {
          "paramId": 0,
          "value": -0.414000064
        },
        {
          "paramId": 1,
          "value": 0.0
        },
        {
          "paramId": 2,
          "value": 0.0
        },
        {
          "paramId": 3,
          "value": 0.0
        },
        {
          "paramId": 4,
          "value": 0.0
        },
        {
          "paramId": 5,
          "value": 0.0
        },
        {
          "paramId": 6,
          "value": 0.0
        },
        {
          "paramId": 7,
          "value": 0.0
        }
      ],
      "data": {
        "phi1": -1.82170725,
        "phi2": -0.169220552,
        "phi3": 0.523528576,
        "phi4": -3.7509501,
        "w1": 1.35747468,
        "w2": -13.6324835,
        "w3": 0.974157631,
        "w4": -18.3301964,
        "store_phi1": 0.0,
        "store_phi2": 0.0,
        "store_phi3": 0.0,
        "store_phi4": 0.0,
        "store_w1": 0.0,
        "store_w2": 0.0,
        "store_w3": 0.0,
        "store_w4": 0.0
      },
      "pos": [
        73,
        1
      ]
    },
    {
      "plugin": "HetrickCV",
      "version": "0.6.0",
      "model": "Dust",
      "params": [
        {
          "paramId": 0,
          "value": 0.0
        },
        {
          "paramId": 1,
          "value": 0.0
        }
      ],
      "pos": [
        83,
        1
      ]
    },
    {
      "plugin": "VultModulesFree",
      "version": "0.6.21",
      "model": "Lateralus",
      "params": [
        {
          "paramId": 0,
          "value": 0.627999246
        },
        {
          "paramId": 1,
          "value": 0.102000013
        },
        {
          "paramId": 2,
          "value": 0.411000073
        },
        {
          "paramId": 3,
          "value": 0.0
        },
        {
          "paramId": 4,
          "value": 1.59000039
        },
        {
          "paramId": 5,
          "value": 1.0
        }
      ],
      "pos": [
        89,
        1
      ]
    },
    {
      "plugin": "AS",
      "version": "0.6.12",
      "model": "ReverbFx",
      "params": [
        {
          "paramId": 0,
          "value": 0.151699945
        },
        {
          "paramId": 1,
          "value": 0.0
        },
        {
          "paramId": 2,
          "value": 1.0
        },
        {
          "paramId": 3,
          "value": 0.0
        }
      ],
      "data": {
        "as_FxBypass": [
          false
        ]
      },
      "pos": [
        99,
        1
      ]
    },
    {
      "plugin": "unless_modules",
      "version": "0.6.2",
      "model": "markov",
      "params": [
        {
          "paramId": 2,
          "value": 0.0
        },
        {
          "paramId": 0,
          "value": 0.0
        },
        {
          "paramId": 1,
          "value": 0.0
        }
      ],
      "data": {
        "nodes": [
          {
            "edges": [
              {
                "note": 64,
                "count": 1
              },
              {
                "note": 65,
                "count": 1
              },
              {
                "note": 69,
                "count": 1
              }
            ],
            "note": 60,
            "count": 1
          },
          {
            "edges": [
              {
                "note": 67,
                "count": 1
              },
              {
                "note": 76,
                "count": 1
              },
              {
                "note": 60,
                "count": 1
              }
            ],
            "note": 64,
            "count": 1
          },
          {
            "edges": [
              {
                "note": 69,
                "count": 2
              },
              {
                "note": 65,
                "count": 1
              },
              {
                "note": 64,
                "count": 1
              },
              {
                "note": 60,
                "count": 1
              }
            ],
            "note": 67,
            "count": 1
          },
          {
            "edges": [
              {
                "note": 65,
                "count": 1
              }
            ],
            "note": 69,
            "count": 1
          },
          {
            "edges": [
              {
                "note": 62,
                "count": 1
              },
              {
                "note": 60,
                "count": 1
              },
              {
                "note": 64,
                "count": 1
              }
            ],
            "note": 65,
            "count": 1
          },
          {
            "edges": [
              {
                "note": 65,
                "count": 2
              },
              {
                "note": 64,
                "count": 1
              }
            ],
            "note": 62,
            "count": 1
          },
          {
            "edges": [
              {
                "note": 74,
                "count": 1
              }
            ],
            "note": 76,
            "count": 1
          },
          {
            "edges": [
              {
                "note": 55,
                "count": 1
              },
              {
                "note": 60,
                "count": 1
              }
            ],
            "note": 74,
            "count": 1
          },
          {
            "edges": [
              {
                "note": 67,
                "count": 1
              }
            ],
            "note": 55,
            "count": 1
          }
        ],
        "current": 1,
        "learning": true
      },
      "pos": [
        53,
        1
      ]
    },
    {
      "plugin": "ImpromptuModular",
      "version": "0.6.13",
      "model": "Twelve-Key",
      "params": [
        {
          "paramId": 3,
          "value": 0.0
        },
        {
          "paramId": 5,
          "value": 0.0
        },
        {
          "paramId": 8,
          "value": 0.0
        },
        {
          "paramId": 10,
          "value": 0.0
        },
        {
          "paramId": 12,
          "value": 0.0
        },
        {
          "paramId": 2,
          "value": 0.0
        },
        {
          "paramId": 4,
          "value": 0.0
        },
        {
          "paramId": 6,
          "value": 0.0
        },
        {
          "paramId": 7,
          "value": 0.0
        },
        {
          "paramId": 9,
          "value": 0.0
        },
        {
          "paramId": 11,
          "value": 0.0
        },
        {
          "paramId": 13,
          "value": 0.0
        },
        {
          "paramId": 1,
          "value": 0.0
        },
        {
          "paramId": 0,
          "value": 0.0
        }
      ],
      "data": {
        "panelTheme": 0,
        "cv": 0.75,
        "octave": 4,
        "stateInternal": true
      },
      "pos": [
        45,
        2
      ]
    },
    {
      "plugin": "VultModulesFree",
      "version": "0.6.21",
      "model": "Bleak",
      "params": [
        {
          "paramId": 0,
          "value": 0.0
        },
        {
          "paramId": 1,
          "value": -0.462999701
        },
        {
          "paramId": 2,
          "value": 0.5
        },
        {
          "paramId": 4,
          "value": 0.5
        },
        {
          "paramId": 3,
          "value": 1.0
        },
        {
          "paramId": 5,
          "value": 0.522999823
        }
      ],
      "pos": [
        105,
        1
      ]
    },
    {
      "plugin": "AS",
      "version": "0.6.12",
      "model": "WaveShaper",
      "params": [
        {
          "paramId": 0,
          "value": 0.0
        },
        {
          "paramId": 1,
          "value": -0.78399986
        },
        {
          "paramId": 2,
          "value": 1.0
        },
        {
          "paramId": 3,
          "value": 0.0
        }
      ],
      "data": {
        "as_FxBypass": [
          false
        ]
      },
      "pos": [
        111,
        1
      ]
    },
    {
      "plugin": "Bogaudio",
      "version": "0.6.13",
      "model": "Bogaudio-Mix8",
      "params": [
        {
          "paramId": 0,
          "value": 0.909090936
        },
        {
          "paramId": 1,
          "value": 0.0
        },
        {
          "paramId": 2,
          "value": -1.0
        },
        {
          "paramId": 3,
          "value": 0.909090936
        },
        {
          "paramId": 4,
          "value": 0.0
        },
        {
          "paramId": 5,
          "value": 0.994000018
        },
        {
          "paramId": 6,
          "value": 0.819090962
        },
        {
          "paramId": 7,
          "value": 0.0
        },
        {
          "paramId": 8,
          "value": 0.0
        },
        {
          "paramId": 9,
          "value": 0.753090918
        },
        {
          "paramId": 10,
          "value": 0.0
        },
        {
          "paramId": 11,
          "value": 0.0
        },
        {
          "paramId": 12,
          "value": 0.909090936
        },
        {
          "paramId": 13,
          "value": 0.0
        },
        {
          "paramId": 14,
          "value": 0.0
        },
        {
          "paramId": 15,
          "value": 0.909090936
        },
        {
          "paramId": 16,
          "value": 0.0
        },
        {
          "paramId": 17,
          "value": 0.0
        },
        {
          "paramId": 18,
          "value": 0.909090936
        },
        {
          "paramId": 19,
          "value": 0.0
        },
        {
          "paramId": 20,
          "value": 0.0
        },
        {
          "paramId": 21,
          "value": 0.909090936
        },
        {
          "paramId": 22,
          "value": 0.0
        },
        {
          "paramId": 23,
          "value": 0.0
        },
        {
          "paramId": 24,
          "value": 0.909090936
        },
        {
          "paramId": 25,
          "value": 0.0
        }
      ],
      "pos": [
        0,
        1
      ]
    },
    {
      "plugin": "unless_modules",
      "version": "0.6.2",
      "model": "markov",
      "params": [
        {
          "paramId": 2,
          "value": 0.0
        },
        {
          "paramId": 0,
          "value": 0.0
        },
        {
          "paramId": 1,
          "value": 0.0
        }
      ],
      "data": {
        "nodes": [
          {
            "edges": [
              {
                "note": 64,
                "count": 1
              },
              {
                "note": 69,
                "count": 1
              }
            ],
            "note": 60,
            "count": 1
          },
          {
            "edges": [
              {
                "note": 65,
                "count": 3
              },
              {
                "note": 67,
                "count": 1
              },
              {
                "note": 60,
                "count": 1
              }
            ],
            "note": 64,
            "count": 1
          },
          {
            "edges": [
              {
                "note": 69,
                "count": 1
              }
            ],
            "note": 67,
            "count": 1
          },
          {
            "edges": [
              {
                "note": 60,
                "count": 2
              },
              {
                "note": 65,
                "count": 1
              }
            ],
            "note": 69,
            "count": 1
          },
          {
            "edges": [
              {
                "note": 62,
                "count": 1
              },
              {
                "note": 60,
                "count": 1
              },
              {
                "note": 76,
                "count": 1
              },
              {
                "note": 64,
                "count": 1
              },
              {
                "note": 69,
                "count": 1
              }
            ],
            "note": 65,
            "count": 1
          },
          {
            "edges": [
              {
                "note": 64,
                "count": 1
              },
              {
                "note": 65,
                "count": 1
              }
            ],
            "note": 62,
            "count": 1
          },
          {
            "edges": [
              {
                "note": 74,
                "count": 1
              }
            ],
            "note": 76,
            "count": 1
          },
          {
            "edges": [
              {
                "note": 55,
                "count": 1
              }
            ],
            "note": 74,
            "count": 1
          },
          {
            "edges": [
              {
                "note": 67,
                "count": 1
              }
            ],
            "note": 55,
            "count": 1
          }
        ],
        "current": 5,
        "learning": true
      },
      "pos": [
        45,
        1
      ]
    },
    {
      "plugin": "cf",
      "version": "0.6.8",
      "model": "LEDSEQ",
      "params": [
        {
          "paramId": 1,
          "value": 0.0
        },
        {
          "paramId": 2,
          "value": 0.0
        },
        {
          "paramId": 3,
          "value": 0.0
        },
        {
          "paramId": 4,
          "value": 0.0
        },
        {
          "paramId": 5,
          "value": 0.0
        },
        {
          "paramId": 6,
          "value": 0.0
        },
        {
          "paramId": 7,
          "value": 0.0
        },
        {
          "paramId": 8,
          "value": 0.0
        },
        {
          "paramId": 9,
          "value": 0.0
        },
        {
          "paramId": 10,
          "value": 0.0
        },
        {
          "paramId": 11,
          "value": 0.0
        },
        {
          "paramId": 12,
          "value": 0.0
        },
        {
          "paramId": 13,
          "value": 0.0
        },
        {
          "paramId": 14,
          "value": 0.0
        },
        {
          "paramId": 15,
          "value": 0.0
        },
        {
          "paramId": 16,
          "value": 0.0
        },
        {
          "paramId": 17,
          "value": 0.0
        },
        {
          "paramId": 18,
          "value": 0.0
        },
        {
          "paramId": 19,
          "value": 0.0
        },
        {
          "paramId": 20,
          "value": 0.0
        },
        {
          "paramId": 21,
          "value": 0.0
        },
        {
          "paramId": 22,
          "value": 0.0
        },
        {
          "paramId": 23,
          "value": 0.0
        },
        {
          "paramId": 24,
          "value": 0.0
        },
        {
          "paramId": 25,
          "value": 0.0
        },
        {
          "paramId": 26,
          "value": 0.0
        },
        {
          "paramId": 27,
          "value": 0.0
        },
        {
          "paramId": 28,
          "value": 0.0
        },
        {
          "paramId": 29,
          "value": 0.0
        },
        {
          "paramId": 30,
          "value": 0.0
        },
        {
          "paramId": 31,
          "value": 0.0
        },
        {
          "paramId": 32,
          "value": 0.0
        },
        {
          "paramId": 33,
          "value": 0.0
        },
        {
          "paramId": 34,
          "value": 0.0
        },
        {
          "paramId": 35,
          "value": 0.0
        },
        {
          "paramId": 36,
          "value": 0.0
        },
        {
          "paramId": 37,
          "value": 0.0
        },
        {
          "paramId": 38,
          "value": 0.0
        },
        {
          "paramId": 39,
          "value": 0.0
        },
        {
          "paramId": 40,
          "value": 0.0
        },
        {
          "paramId": 41,
          "value": 0.0
        },
        {
          "paramId": 42,
          "value": 0.0
        },
        {
          "paramId": 43,
          "value": 0.0
        },
        {
          "paramId": 44,
          "value": 0.0
        },
        {
          "paramId": 45,
          "value": 0.0
        },
        {
          "paramId": 46,
          "value": 0.0
        },
        {
          "paramId": 47,
          "value": 0.0
        },
        {
          "paramId": 48,
          "value": 0.0
        },
        {
          "paramId": 49,
          "value": 0.0
        },
        {
          "paramId": 50,
          "value": 0.0
        },
        {
          "paramId": 51,
          "value": 0.0
        },
        {
          "paramId": 52,
          "value": 0.0
        },
        {
          "paramId": 53,
          "value": 0.0
        },
        {
          "paramId": 54,
          "value": 0.0
        },
        {
          "paramId": 55,
          "value": 0.0
        },
        {
          "paramId": 56,
          "value": 0.0
        },
        {
          "paramId": 57,
          "value": 0.0
        },
        {
          "paramId": 58,
          "value": 0.0
        },
        {
          "paramId": 59,
          "value": 0.0
        },
        {
          "paramId": 60,
          "value": 0.0
        },
        {
          "paramId": 61,
          "value": 0.0
        },
        {
          "paramId": 62,
          "value": 0.0
        },
        {
          "paramId": 63,
          "value": 0.0
        },
        {
          "paramId": 64,
          "value": 0.0
        },
        {
          "paramId": 65,
          "value": 0.0
        },
        {
          "paramId": 66,
          "value": 0.0
        },
        {
          "paramId": 67,
          "value": 0.0
        },
        {
          "paramId": 68,
          "value": 0.0
        },
        {
          "paramId": 69,
          "value": 0.0
        },
        {
          "paramId": 70,
          "value": 0.0
        },
        {
          "paramId": 71,
          "value": 0.0
        },
        {
          "paramId": 72,
          "value": 0.0
        },
        {
          "paramId": 73,
          "value": 0.0
        },
        {
          "paramId": 74,
          "value": 0.0
        },
        {
          "paramId": 75,
          "value": 0.0
        },
        {
          "paramId": 76,
          "value": 0.0
        },
        {
          "paramId": 77,
          "value": 0.0
        },
        {
          "paramId": 78,
          "value": 0.0
        },
        {
          "paramId": 79,
          "value": 0.0
        },
        {
          "paramId": 80,
          "value": 0.0
        },
        {
          "paramId": 0,
          "value": 0.0
        }
      ],
      "data": {
        "leds": [
          1,
          0,
          1,
          0,
          0,
          0,
          0,
          1,
          0,
          0,
          1,
          1,
          1,
          0,
          0,
          0,
          0,
          1,
          0,
          0,
          1,
          0,
          1,
          0,
          0,
          0,
          0,
          1,
          0,
          0,
          1,
          1,
          1,
          0,
          0,
          0,
          0,
          1,
          0,
          0,
          1,
          0,
          1,
          0,
          0,
          0,
          0,
          1,
          0,
          0,
          1,
          1,
          1,
          0,
          0,
          0,
          0,
          1,
          0,
          0,
          1,
          0,
          1,
          0,
          0,
          0,
          0,
          1,
          0,
          0,
          1,
          1,
          1,
          0,
          0,
          0,
          0,
          1,
          0,
          0
        ]
      },
      "pos": [
        33,
        1
      ]
    },
    {
      "plugin": "cf",
      "version": "0.6.8",
      "model": "PLAY",
      "params": [
        {
          "paramId": 2,
          "value": 0.0
        },
        {
          "paramId": 0,
          "value": 0.0
        },
        {
          "paramId": 1,
          "value": 0.0
        }
      ],
      "data": {
        "lastPath": "/Users/bren.brightwell/Documents/Rack/samples/707 snare.wav"
      },
      "pos": [
        41,
        1
      ]
    },
    {
      "plugin": "cf",
      "version": "0.6.8",
      "model": "PLAY",
      "params": [
        {
          "paramId": 2,
          "value": 0.0
        },
        {
          "paramId": 0,
          "value": 0.0
        },
        {
          "paramId": 1,
          "value": 0.0
        }
      ],
      "data": {
        "lastPath": "/Users/bren.brightwell/Documents/Rack/samples/707 kick.wav"
      },
      "pos": [
        39,
        1
      ]
    },
    {
      "plugin": "cf",
      "version": "0.6.8",
      "model": "PLAY",
      "params": [
        {
          "paramId": 2,
          "value": 0.0
        },
        {
          "paramId": 0,
          "value": 0.0
        },
        {
          "paramId": 1,
          "value": 0.0
        }
      ],
      "data": {
        "lastPath": "/Users/bren.brightwell/Documents/Rack/samples/707 hat.wav"
      },
      "pos": [
        43,
        1
      ]
    }
  ],
  "wires": [
    {
      "color": "#0c8e15",
      "outputModuleId": 5,
      "outputId": 0,
      "inputModuleId": 3,
      "inputId": 1
    },
    {
      "color": "#0986ad",
      "outputModuleId": 5,
      "outputId": 3,
      "inputModuleId": 4,
      "inputId": 1
    },
    {
      "color": "#c9b70e",
      "outputModuleId": 5,
      "outputId": 1,
      "inputModuleId": 3,
      "inputId": 2
    },
    {
      "color": "#c91847",
      "outputModuleId": 5,
      "outputId": 4,
      "inputModuleId": 4,
      "inputId": 2
    },
    {
      "color": "#c91847",
      "outputModuleId": 5,
      "outputId": 6,
      "inputModuleId": 6,
      "inputId": 0
    },
    {
      "color": "#0c8e15",
      "outputModuleId": 6,
      "outputId": 0,
      "inputModuleId": 7,
      "inputId": 0
    },
    {
      "color": "#c9b70e",
      "outputModuleId": 7,
      "outputId": 1,
      "inputModuleId": 8,
      "inputId": 0
    },
    {
      "color": "#0c8e15",
      "outputModuleId": 5,
      "outputId": 9,
      "inputModuleId": 8,
      "inputId": 1
    },
    {
      "color": "#0986ad",
      "outputModuleId": 5,
      "outputId": 7,
      "inputModuleId": 8,
      "inputId": 2
    },
    {
      "color": "#c9b70e",
      "outputModuleId": 5,
      "outputId": 10,
      "inputModuleId": 8,
      "inputId": 3
    },
    {
      "color": "#c91847",
      "outputModuleId": 5,
      "outputId": 11,
      "inputModuleId": 7,
      "inputId": 3
    },
    {
      "color": "#0c8e15",
      "outputModuleId": 5,
      "outputId": 8,
      "inputModuleId": 7,
      "inputId": 1
    },
    {
      "color": "#0986ad",
      "outputModuleId": 9,
      "outputId": 0,
      "inputModuleId": 3,
      "inputId": 0
    },
    {
      "color": "#c9b70e",
      "outputModuleId": 9,
      "outputId": 0,
      "inputModuleId": 4,
      "inputId": 0
    },
    {
      "color": "#c91847",
      "outputModuleId": 10,
      "outputId": 1,
      "inputModuleId": 9,
      "inputId": 3
    },
    {
      "color": "#c9b70e",
      "outputModuleId": 10,
      "outputId": 0,
      "inputModuleId": 9,
      "inputId": 4
    },
    {
      "color": "#c91847",
      "outputModuleId": 2,
      "outputId": 0,
      "inputModuleId": 9,
      "inputId": 5
    },
    {
      "color": "#c9b70e",
      "outputModuleId": 5,
      "outputId": 2,
      "inputModuleId": 11,
      "inputId": 1
    },
    {
      "color": "#c91847",
      "outputModuleId": 5,
      "outputId": 5,
      "inputModuleId": 11,
      "inputId": 2
    },
    {
      "color": "#0c8e15",
      "outputModuleId": 11,
      "outputId": 0,
      "inputModuleId": 12,
      "inputId": 0
    },
    {
      "color": "#c91847",
      "outputModuleId": 5,
      "outputId": 8,
      "inputModuleId": 12,
      "inputId": 1
    },
    {
      "color": "#0986ad",
      "outputModuleId": 3,
      "outputId": 0,
      "inputModuleId": 13,
      "inputId": 2
    },
    {
      "color": "#c9b70e",
      "outputModuleId": 4,
      "outputId": 0,
      "inputModuleId": 13,
      "inputId": 5
    },
    {
      "color": "#c91847",
      "outputModuleId": 13,
      "outputId": 0,
      "inputModuleId": 0,
      "inputId": 0
    },
    {
      "color": "#0c8e15",
      "outputModuleId": 13,
      "outputId": 1,
      "inputModuleId": 0,
      "inputId": 1
    },
    {
      "color": "#0986ad",
      "outputModuleId": 13,
      "outputId": 0,
      "inputModuleId": 1,
      "inputId": 0
    },
    {
      "color": "#c9b70e",
      "outputModuleId": 13,
      "outputId": 1,
      "inputModuleId": 1,
      "inputId": 1
    },
    {
      "color": "#c91847",
      "outputModuleId": 8,
      "outputId": 0,
      "inputModuleId": 13,
      "inputId": 8
    },
    {
      "color": "#0c8e15",
      "outputModuleId": 12,
      "outputId": 0,
      "inputModuleId": 13,
      "inputId": 11
    },
    {
      "color": "#0986ad",
      "outputModuleId": 10,
      "outputId": 1,
      "inputModuleId": 14,
      "inputId": 3
    },
    {
      "color": "#c9b70e",
      "outputModuleId": 10,
      "outputId": 0,
      "inputModuleId": 14,
      "inputId": 4
    },
    {
      "color": "#c91847",
      "outputModuleId": 2,
      "outputId": 2,
      "inputModuleId": 14,
      "inputId": 5
    },
    {
      "color": "#0c8e15",
      "outputModuleId": 14,
      "outputId": 0,
      "inputModuleId": 11,
      "inputId": 0
    },
    {
      "color": "#c9b70e",
      "outputModuleId": 2,
      "outputId": 0,
      "inputModuleId": 15,
      "inputId": 1
    },
    {
      "color": "#c9b70e",
      "outputModuleId": 15,
      "outputId": 0,
      "inputModuleId": 17,
      "inputId": 0
    },
    {
      "color": "#c91847",
      "outputModuleId": 15,
      "outputId": 1,
      "inputModuleId": 16,
      "inputId": 0
    },
    {
      "color": "#0c8e15",
      "outputModuleId": 15,
      "outputId": 2,
      "inputModuleId": 18,
      "inputId": 0
    },
    {
      "color": "#0986ad",
      "outputModuleId": 17,
      "outputId": 0,
      "inputModuleId": 13,
      "inputId": 14
    },
    {
      "color": "#c9b70e",
      "outputModuleId": 16,
      "outputId": 0,
      "inputModuleId": 13,
      "inputId": 17
    },
    {
      "color": "#c91847",
      "outputModuleId": 18,
      "outputId": 0,
      "inputModuleId": 13,
      "inputId": 20
    },
    {
      "color": "#0c8e15",
      "outputModuleId": 5,
      "outputId": 0,
      "inputModuleId": 13,
      "inputId": 7
    },
    {
      "color": "#0986ad",
      "outputModuleId": 5,
      "outputId": 5,
      "inputModuleId": 14,
      "inputId": 2
    },
    {
      "color": "#c9b70e",
      "outputModuleId": 5,
      "outputId": 8,
      "inputModuleId": 9,
      "inputId": 2
    }
  ]
}