{
  "version": "0.6.2c",
  "modules": [
    {
      "plugin": "Core",
      "version": "0.6.2c",
      "model": "AudioInterface",
      "params": [],
      "data": {
        "audio": {
          "driver": 5,
          "deviceName": "Apple Inc.: Built-in Output",
          "offset": 0,
          "maxChannels": 8,
          "sampleRate": 44100,
          "blockSize": 256
        }
      },
      "pos": [
        0,
        2
      ]
    },
    {
      "plugin": "JW-Modules",
      "version": "0.6.3",
      "model": "FullScope",
      "params": [
        {
          "paramId": 1,
          "value": 0.0
        },
        {
          "paramId": 3,
          "value": 0.0
        },
        {
          "paramId": 0,
          "value": 1.0
        },
        {
          "paramId": 2,
          "value": 1.0
        },
        {
          "paramId": 8,
          "value": 0.0
        },
        {
          "paramId": 4,
          "value": -14.0
        }
      ],
      "data": {
        "lissajous": 1,
        "external": 0
      },
      "width": 345.0,
      "height": 380.0,
      "pos": [
        10,
        2
      ]
    },
    {
      "plugin": "AudibleInstruments",
      "version": "0.6.3",
      "model": "Rings",
      "params": [
        {
          "paramId": 0,
          "value": 0.0
        },
        {
          "paramId": 1,
          "value": 0.0
        },
        {
          "paramId": 2,
          "value": 30.0
        },
        {
          "paramId": 3,
          "value": 0.5
        },
        {
          "paramId": 4,
          "value": 0.5
        },
        {
          "paramId": 5,
          "value": 0.5
        },
        {
          "paramId": 6,
          "value": 0.5
        },
        {
          "paramId": 7,
          "value": 0.0
        },
        {
          "paramId": 8,
          "value": 0.0
        },
        {
          "paramId": 9,
          "value": 0.0
        },
        {
          "paramId": 10,
          "value": 0.0
        },
        {
          "paramId": 11,
          "value": 0.0
        }
      ],
      "data": {
        "polyphony": 0,
        "model": 4,
        "easterEgg": true
      },
      "pos": [
        51,
        1
      ]
    },
    {
      "plugin": "Befaco",
      "version": "0.6.0",
      "model": "SpringReverb",
      "params": [
        {
          "paramId": 0,
          "value": 1.0
        },
        {
          "paramId": 1,
          "value": 0.981999993
        },
        {
          "paramId": 2,
          "value": 1.0
        },
        {
          "paramId": 3,
          "value": 0.5
        }
      ],
      "pos": [
        65,
        1
      ]
    },
    {
      "plugin": "SonusModular",
      "version": "0.6.2",
      "model": "Campione",
      "params": [
        {
          "paramId": 0,
          "value": 0.0
        },
        {
          "paramId": 1,
          "value": 0.0
        },
        {
          "paramId": 4,
          "value": 0.0
        },
        {
          "paramId": 3,
          "value": 0.0
        },
        {
          "paramId": 2,
          "value": 0.0
        },
        {
          "paramId": 8,
          "value": 1.0
        },
        {
          "paramId": 7,
          "value": 0.0
        },
        {
          "paramId": 5,
          "value": 0.109500006
        },
        {
          "paramId": 6,
          "value": 1.0
        }
      ],
      "pos": [
        36,
        0
      ]
    },
    {
      "plugin": "ArableInstruments",
      "version": "0.6.0",
      "model": "Joni",
      "params": [
        {
          "paramId": 0,
          "value": 0.5
        },
        {
          "paramId": 1,
          "value": 0.5
        },
        {
          "paramId": 2,
          "value": 0.0
        },
        {
          "paramId": 3,
          "value": 0.5
        },
        {
          "paramId": 4,
          "value": 0.5
        },
        {
          "paramId": 5,
          "value": 0.5
        },
        {
          "paramId": 6,
          "value": 0.5
        },
        {
          "paramId": 7,
          "value": 0.5
        },
        {
          "paramId": 8,
          "value": 0.5
        },
        {
          "paramId": 9,
          "value": 0.5
        },
        {
          "paramId": 10,
          "value": 0.0
        }
      ],
      "data": {
        "playbackmode": 0,
        "lofi": 0,
        "mono": 0,
        "freeze": 0,
        "buffersize": 1
      },
      "pos": [
        48,
        0
      ]
    },
    {
      "plugin": "Valley",
      "version": "0.6.9",
      "model": "uGraph",
      "params": [
        {
          "paramId": 2,
          "value": 0.147999987
        },
        {
          "paramId": 3,
          "value": 0.057
        },
        {
          "paramId": 4,
          "value": 0.163499966
        },
        {
          "paramId": 5,
          "value": 0.212499991
        },
        {
          "paramId": 6,
          "value": 0.5
        },
        {
          "paramId": 7,
          "value": 0.5
        },
        {
          "paramId": 8,
          "value": 0.5
        },
        {
          "paramId": 9,
          "value": 0.0
        },
        {
          "paramId": 0,
          "value": 0.0
        },
        {
          "paramId": 1,
          "value": 0.0
        }
      ],
      "data": {
        "sequencerMode": 0,
        "triggerOutputMode": 0,
        "accOutputMode": 0,
        "extClockResolution": 0,
        "chaosKnobMode": 0,
        "runMode": 0,
        "panelStyle": 0,
        "running": 1
      },
      "pos": [
        26,
        0
      ]
    },
    {
      "plugin": "SynthKit",
      "version": "0.6.2",
      "model": "4-Step Sequencer",
      "params": [
        {
          "paramId": 0,
          "value": 4.0
        },
        {
          "paramId": 1,
          "value": 6.0
        },
        {
          "paramId": 2,
          "value": 10.0
        },
        {
          "paramId": 3,
          "value": 3.0
        },
        {
          "paramId": 4,
          "value": 7.0
        }
      ],
      "pos": [
        48,
        1
      ]
    },
    {
      "plugin": "JW-Modules",
      "version": "0.6.3",
      "model": "SimpleClock",
      "params": [
        {
          "paramId": 1,
          "value": 0.0
        },
        {
          "paramId": 0,
          "value": 1.16399956
        },
        {
          "paramId": 3,
          "value": 0.0
        },
        {
          "paramId": 2,
          "value": -2.0
        }
      ],
      "data": {
        "running": true
      },
      "pos": [
        22,
        0
      ]
    },
    {
      "plugin": "DrumKit",
      "version": "0.6.4",
      "model": "Bass Drum 9",
      "params": [
        {
          "paramId": 0,
          "value": 8.0
        },
        {
          "paramId": 1,
          "value": 8.0
        }
      ],
      "pos": [
        33,
        1
      ]
    },
    {
      "plugin": "Bogaudio",
      "version": "0.6.13",
      "model": "Bogaudio-Mix8",
      "params": [
        {
          "paramId": 0,
          "value": 0.909090936
        },
        {
          "paramId": 1,
          "value": 0.0
        },
        {
          "paramId": 2,
          "value": 0.0
        },
        {
          "paramId": 3,
          "value": 0.909090936
        },
        {
          "paramId": 4,
          "value": 0.0
        },
        {
          "paramId": 5,
          "value": -1.0
        },
        {
          "paramId": 6,
          "value": 0.909090936
        },
        {
          "paramId": 7,
          "value": 0.0
        },
        {
          "paramId": 8,
          "value": 1.0
        },
        {
          "paramId": 9,
          "value": 0.909090936
        },
        {
          "paramId": 10,
          "value": 0.0
        },
        {
          "paramId": 11,
          "value": 0.0
        },
        {
          "paramId": 12,
          "value": 0.909090936
        },
        {
          "paramId": 13,
          "value": 0.0
        },
        {
          "paramId": 14,
          "value": 0.0
        },
        {
          "paramId": 15,
          "value": 0.909090936
        },
        {
          "paramId": 16,
          "value": 0.0
        },
        {
          "paramId": 17,
          "value": 0.0
        },
        {
          "paramId": 18,
          "value": 0.909090936
        },
        {
          "paramId": 19,
          "value": 0.0
        },
        {
          "paramId": 20,
          "value": 0.0
        },
        {
          "paramId": 21,
          "value": 0.909090936
        },
        {
          "paramId": 22,
          "value": 0.0
        },
        {
          "paramId": 23,
          "value": 0.0
        },
        {
          "paramId": 24,
          "value": 0.909090936
        },
        {
          "paramId": 25,
          "value": 0.0
        }
      ],
      "pos": [
        0,
        1
      ]
    },
    {
      "plugin": "DrumKit",
      "version": "0.6.4",
      "model": "Snare Drum N",
      "params": [
        {
          "paramId": 0,
          "value": 8.0
        },
        {
          "paramId": 1,
          "value": 8.0
        }
      ],
      "pos": [
        36,
        1
      ]
    },
    {
      "plugin": "DrumKit",
      "version": "0.6.4",
      "model": "Closed HiHat",
      "params": [
        {
          "paramId": 0,
          "value": 9.0
        },
        {
          "paramId": 1,
          "value": 8.0
        }
      ],
      "pos": [
        39,
        1
      ]
    }
  ],
  "wires": [
    {
      "color": "#0986ad",
      "outputModuleId": 2,
      "outputId": 0,
      "inputModuleId": 3,
      "inputId": 2
    },
    {
      "color": "#c9b70e",
      "outputModuleId": 2,
      "outputId": 1,
      "inputModuleId": 3,
      "inputId": 3
    },
    {
      "color": "#0c8e15",
      "outputModuleId": 4,
      "outputId": 0,
      "inputModuleId": 5,
      "inputId": 9
    },
    {
      "color": "#0986ad",
      "outputModuleId": 4,
      "outputId": 0,
      "inputModuleId": 5,
      "inputId": 10
    },
    {
      "color": "#0986ad",
      "outputModuleId": 6,
      "outputId": 2,
      "inputModuleId": 5,
      "inputId": 1
    },
    {
      "color": "#c9b70e",
      "outputModuleId": 6,
      "outputId": 1,
      "inputModuleId": 5,
      "inputId": 0
    },
    {
      "color": "#c91847",
      "outputModuleId": 6,
      "outputId": 0,
      "inputModuleId": 4,
      "inputId": 2
    },
    {
      "color": "#0986ad",
      "outputModuleId": 6,
      "outputId": 3,
      "inputModuleId": 4,
      "inputId": 1
    },
    {
      "color": "#c91847",
      "outputModuleId": 6,
      "outputId": 5,
      "inputModuleId": 2,
      "inputId": 5
    },
    {
      "color": "#0c8e15",
      "outputModuleId": 7,
      "outputId": 0,
      "inputModuleId": 2,
      "inputId": 6
    },
    {
      "color": "#c9b70e",
      "outputModuleId": 8,
      "outputId": 0,
      "inputModuleId": 6,
      "inputId": 0
    },
    {
      "color": "#0c8e15",
      "outputModuleId": 8,
      "outputId": 2,
      "inputModuleId": 7,
      "inputId": 0
    },
    {
      "color": "#0986ad",
      "outputModuleId": 6,
      "outputId": 0,
      "inputModuleId": 9,
      "inputId": 0
    },
    {
      "color": "#c91847",
      "outputModuleId": 5,
      "outputId": 0,
      "inputModuleId": 10,
      "inputId": 5
    },
    {
      "color": "#0c8e15",
      "outputModuleId": 5,
      "outputId": 1,
      "inputModuleId": 10,
      "inputId": 8
    },
    {
      "color": "#0986ad",
      "outputModuleId": 10,
      "outputId": 0,
      "inputModuleId": 0,
      "inputId": 0
    },
    {
      "color": "#c9b70e",
      "outputModuleId": 10,
      "outputId": 1,
      "inputModuleId": 0,
      "inputId": 1
    },
    {
      "color": "#c91847",
      "outputModuleId": 10,
      "outputId": 0,
      "inputModuleId": 4,
      "inputId": 0
    },
    {
      "color": "#0c8e15",
      "outputModuleId": 3,
      "outputId": 1,
      "inputModuleId": 10,
      "inputId": 2
    },
    {
      "color": "#0986ad",
      "outputModuleId": 9,
      "outputId": 0,
      "inputModuleId": 10,
      "inputId": 11
    },
    {
      "color": "#c9b70e",
      "outputModuleId": 6,
      "outputId": 1,
      "inputModuleId": 11,
      "inputId": 0
    },
    {
      "color": "#c91847",
      "outputModuleId": 11,
      "outputId": 0,
      "inputModuleId": 10,
      "inputId": 14
    },
    {
      "color": "#0c8e15",
      "outputModuleId": 6,
      "outputId": 2,
      "inputModuleId": 12,
      "inputId": 0
    },
    {
      "color": "#0986ad",
      "outputModuleId": 12,
      "outputId": 0,
      "inputModuleId": 10,
      "inputId": 17
    }
  ]
}