{
  "version": "0.6.0",
  "modules": [
    {
      "plugin": "Core",
      "version": "0.6.0",
      "model": "AudioInterface",
      "pos": [
        121,
        0
      ],
      "params": [],
      "data": {
        "audio": {
          "driver": 5,
          "deviceName": "Apple Inc.: Built-in Output",
          "offset": 0,
          "maxChannels": 8,
          "sampleRate": 44100,
          "blockSize": 256
        }
      }
    },
    {
      "plugin": "JW-Modules",
      "version": "0.6.1",
      "model": "FullScope",
      "pos": [
        98,
        0
      ],
      "params": [
        {
          "paramId": 1,
          "value": 0.0
        },
        {
          "paramId": 3,
          "value": 0.0
        },
        {
          "paramId": 0,
          "value": 1.0
        },
        {
          "paramId": 2,
          "value": 1.0
        },
        {
          "paramId": 8,
          "value": 0.0
        },
        {
          "paramId": 4,
          "value": -14.0
        }
      ],
      "data": {
        "lissajous": 1,
        "external": 0
      },
      "width": 345.0
    },
    {
      "plugin": "AS",
      "version": "0.6.8",
      "model": "Mixer8ch",
      "pos": [
        72,
        0
      ],
      "params": [
        {
          "paramId": 9,
          "value": -0.2040001
        },
        {
          "paramId": 10,
          "value": 0.210000068
        },
        {
          "paramId": 11,
          "value": 0.0
        },
        {
          "paramId": 12,
          "value": 0.0
        },
        {
          "paramId": 13,
          "value": 0.0
        },
        {
          "paramId": 14,
          "value": 0.0
        },
        {
          "paramId": 15,
          "value": 0.0
        },
        {
          "paramId": 16,
          "value": 0.0
        },
        {
          "paramId": 1,
          "value": 0.800000012
        },
        {
          "paramId": 2,
          "value": 0.800000012
        },
        {
          "paramId": 3,
          "value": 0.800000012
        },
        {
          "paramId": 4,
          "value": 0.800000012
        },
        {
          "paramId": 5,
          "value": 0.800000012
        },
        {
          "paramId": 6,
          "value": 0.800000012
        },
        {
          "paramId": 7,
          "value": 0.800000012
        },
        {
          "paramId": 8,
          "value": 0.800000012
        },
        {
          "paramId": 17,
          "value": 0.0
        },
        {
          "paramId": 18,
          "value": 0.0
        },
        {
          "paramId": 19,
          "value": 0.0
        },
        {
          "paramId": 20,
          "value": 0.0
        },
        {
          "paramId": 21,
          "value": 0.0
        },
        {
          "paramId": 22,
          "value": 0.0
        },
        {
          "paramId": 23,
          "value": 0.0
        },
        {
          "paramId": 24,
          "value": 0.0
        },
        {
          "paramId": 0,
          "value": 0.800000012
        },
        {
          "paramId": 25,
          "value": 0.0
        }
      ],
      "data": {
        "as_MixerMutes": [
          0,
          0,
          0,
          0,
          0,
          0,
          0,
          0,
          0
        ]
      }
    },
    {
      "plugin": "JW-Modules",
      "version": "0.6.1",
      "model": "SimpleClock",
      "pos": [
        0,
        0
      ],
      "params": [
        {
          "paramId": 1,
          "value": 0.0
        },
        {
          "paramId": 0,
          "value": 1.0
        },
        {
          "paramId": 3,
          "value": 0.0
        },
        {
          "paramId": 2,
          "value": -2.0
        }
      ],
      "data": {
        "running": true
      }
    },
    {
      "plugin": "Bogaudio",
      "version": "0.6.7",
      "model": "Bogaudio-Detune",
      "pos": [
        24,
        0
      ],
      "params": [
        {
          "paramId": 0,
          "value": 5.0
        }
      ]
    },
    {
      "plugin": "SonusModular",
      "version": "0.6.1",
      "model": "Chainsaw",
      "pos": [
        27,
        0
      ],
      "params": [
        {
          "paramId": 0,
          "value": -3.0
        },
        {
          "paramId": 1,
          "value": 0.0
        },
        {
          "paramId": 2,
          "value": 0.0
        },
        {
          "paramId": 3,
          "value": 0.0
        },
        {
          "paramId": 4,
          "value": 0.0
        },
        {
          "paramId": 5,
          "value": 0.0
        },
        {
          "paramId": 6,
          "value": 0.0
        },
        {
          "paramId": 7,
          "value": 0.0
        }
      ]
    },
    {
      "plugin": "SonusModular",
      "version": "0.6.1",
      "model": "Chainsaw",
      "pos": [
        39,
        0
      ],
      "params": [
        {
          "paramId": 0,
          "value": -3.0
        },
        {
          "paramId": 1,
          "value": 0.0
        },
        {
          "paramId": 2,
          "value": 0.0
        },
        {
          "paramId": 3,
          "value": 0.0
        },
        {
          "paramId": 4,
          "value": 0.0
        },
        {
          "paramId": 5,
          "value": 0.0
        },
        {
          "paramId": 6,
          "value": 0.0
        },
        {
          "paramId": 7,
          "value": 0.0
        }
      ]
    },
    {
      "plugin": "JW-Modules",
      "version": "0.6.1",
      "model": "GridSeq",
      "pos": [
        4,
        0
      ],
      "params": [
        {
          "paramId": 0,
          "value": 0.0
        },
        {
          "paramId": 2,
          "value": 0.0
        },
        {
          "paramId": 39,
          "value": 0.0
        },
        {
          "paramId": 40,
          "value": 0.0
        },
        {
          "paramId": 41,
          "value": 0.0
        },
        {
          "paramId": 42,
          "value": 0.0
        },
        {
          "paramId": 43,
          "value": 0.0
        },
        {
          "paramId": 44,
          "value": 0.0
        },
        {
          "paramId": 36,
          "value": 0.0
        },
        {
          "paramId": 37,
          "value": 14.0
        },
        {
          "paramId": 38,
          "value": 0.0
        },
        {
          "paramId": 35,
          "value": 0.0
        },
        {
          "paramId": 45,
          "value": 1.0
        },
        {
          "paramId": 3,
          "value": 8.88187218
        },
        {
          "paramId": 19,
          "value": 0.0
        },
        {
          "paramId": 4,
          "value": 9.11462688
        },
        {
          "paramId": 20,
          "value": 0.0
        },
        {
          "paramId": 5,
          "value": 2.55480886
        },
        {
          "paramId": 21,
          "value": 0.0
        },
        {
          "paramId": 6,
          "value": 4.42655373
        },
        {
          "paramId": 22,
          "value": 0.0
        },
        {
          "paramId": 7,
          "value": 2.93266106
        },
        {
          "paramId": 23,
          "value": 0.0
        },
        {
          "paramId": 8,
          "value": 7.09956455
        },
        {
          "paramId": 24,
          "value": 0.0
        },
        {
          "paramId": 9,
          "value": 9.4257021
        },
        {
          "paramId": 25,
          "value": 0.0
        },
        {
          "paramId": 10,
          "value": 6.17653179
        },
        {
          "paramId": 26,
          "value": 0.0
        },
        {
          "paramId": 11,
          "value": 9.05643082
        },
        {
          "paramId": 27,
          "value": 0.0
        },
        {
          "paramId": 12,
          "value": 1.86612785
        },
        {
          "paramId": 28,
          "value": 0.0
        },
        {
          "paramId": 13,
          "value": 4.68260336
        },
        {
          "paramId": 29,
          "value": 0.0
        },
        {
          "paramId": 14,
          "value": 2.80658364
        },
        {
          "paramId": 30,
          "value": 0.0
        },
        {
          "paramId": 15,
          "value": 7.18776798
        },
        {
          "paramId": 31,
          "value": 0.0
        },
        {
          "paramId": 16,
          "value": 9.89225006
        },
        {
          "paramId": 32,
          "value": 0.0
        },
        {
          "paramId": 17,
          "value": 7.05945778
        },
        {
          "paramId": 33,
          "value": 0.0
        },
        {
          "paramId": 18,
          "value": 8.04494953
        },
        {
          "paramId": 34,
          "value": 0.0
        }
      ],
      "data": {
        "running": true,
        "ignoreGateOnPitchOut": false,
        "gates": [
          1,
          1,
          1,
          1,
          1,
          1,
          1,
          1,
          1,
          1,
          1,
          1,
          1,
          1,
          1,
          1
        ],
        "gateMode": 0
      }
    },
    {
      "plugin": "SonusModular",
      "version": "0.6.1",
      "model": "Chainsaw",
      "pos": [
        51,
        0
      ],
      "params": [
        {
          "paramId": 0,
          "value": -2.01899981
        },
        {
          "paramId": 1,
          "value": 0.0
        },
        {
          "paramId": 2,
          "value": 0.0
        },
        {
          "paramId": 3,
          "value": 0.0
        },
        {
          "paramId": 4,
          "value": 0.0
        },
        {
          "paramId": 5,
          "value": 0.0
        },
        {
          "paramId": 6,
          "value": 0.0
        },
        {
          "paramId": 7,
          "value": 0.0
        }
      ]
    },
    {
      "plugin": "Bogaudio",
      "version": "0.6.7",
      "model": "Bogaudio-LFO",
      "pos": [
        18,
        1
      ],
      "params": [
        {
          "paramId": 0,
          "value": -5.22599936
        },
        {
          "paramId": 1,
          "value": 0.0
        },
        {
          "paramId": 2,
          "value": 0.0
        },
        {
          "paramId": 3,
          "value": 0.326999992
        },
        {
          "paramId": 4,
          "value": 1.0
        },
        {
          "paramId": 5,
          "value": 1.0
        }
      ]
    }
  ],
  "wires": [
    {
      "color": {
        "r": 0.788235366,
        "g": 0.717647076,
        "b": 0.054901965,
        "a": 1.0
      },
      "outputModuleId": 2,
      "outputId": 0,
      "inputModuleId": 1,
      "inputId": 0
    },
    {
      "color": {
        "r": 0.788235366,
        "g": 0.0941176564,
        "b": 0.278431386,
        "a": 1.0
      },
      "outputModuleId": 2,
      "outputId": 1,
      "inputModuleId": 1,
      "inputId": 1
    },
    {
      "color": {
        "r": 0.0470588282,
        "g": 0.556862772,
        "b": 0.0823529437,
        "a": 1.0
      },
      "outputModuleId": 2,
      "outputId": 0,
      "inputModuleId": 0,
      "inputId": 0
    },
    {
      "color": {
        "r": 0.0352941193,
        "g": 0.525490224,
        "b": 0.678431392,
        "a": 1.0
      },
      "outputModuleId": 2,
      "outputId": 1,
      "inputModuleId": 0,
      "inputId": 1
    },
    {
      "color": {
        "r": 0.0470588282,
        "g": 0.556862772,
        "b": 0.0823529437,
        "a": 1.0
      },
      "outputModuleId": 4,
      "outputId": 1,
      "inputModuleId": 5,
      "inputId": 0
    },
    {
      "color": {
        "r": 0.0352941193,
        "g": 0.525490224,
        "b": 0.678431392,
        "a": 1.0
      },
      "outputModuleId": 4,
      "outputId": 2,
      "inputModuleId": 6,
      "inputId": 0
    },
    {
      "color": {
        "r": 0.788235366,
        "g": 0.717647076,
        "b": 0.054901965,
        "a": 1.0
      },
      "outputModuleId": 3,
      "outputId": 0,
      "inputModuleId": 7,
      "inputId": 8
    },
    {
      "color": {
        "r": 0.788235366,
        "g": 0.0941176564,
        "b": 0.278431386,
        "a": 1.0
      },
      "outputModuleId": 7,
      "outputId": 1,
      "inputModuleId": 4,
      "inputId": 1
    },
    {
      "color": {
        "r": 0.0470588282,
        "g": 0.556862772,
        "b": 0.0823529437,
        "a": 1.0
      },
      "outputModuleId": 5,
      "outputId": 0,
      "inputModuleId": 2,
      "inputId": 1
    },
    {
      "color": {
        "r": 0.788235366,
        "g": 0.717647076,
        "b": 0.054901965,
        "a": 1.0
      },
      "outputModuleId": 6,
      "outputId": 0,
      "inputModuleId": 2,
      "inputId": 4
    },
    {
      "color": {
        "r": 0.788235366,
        "g": 0.0941176564,
        "b": 0.278431386,
        "a": 1.0
      },
      "outputModuleId": 4,
      "outputId": 0,
      "inputModuleId": 8,
      "inputId": 0
    },
    {
      "color": {
        "r": 0.0470588282,
        "g": 0.556862772,
        "b": 0.0823529437,
        "a": 1.0
      },
      "outputModuleId": 8,
      "outputId": 0,
      "inputModuleId": 2,
      "inputId": 7
    },
    {
      "color": {
        "r": 0.0352941193,
        "g": 0.525490224,
        "b": 0.678431392,
        "a": 1.0
      },
      "outputModuleId": 3,
      "outputId": 5,
      "inputModuleId": 7,
      "inputId": 9
    },
    {
      "color": {
        "r": 0.0470588282,
        "g": 0.556862772,
        "b": 0.0823529437,
        "a": 1.0
      },
      "outputModuleId": 9,
      "outputId": 4,
      "inputModuleId": 4,
      "inputId": 0
    }
  ]
}