{
  "version": "0.6.2c",
  "modules": [
    {
      "plugin": "Core",
      "version": "0.6.2c",
      "model": "AudioInterface",
      "params": [],
      "data": {
        "audio": {
          "driver": 5,
          "deviceName": "Apple Inc.: Built-in Output",
          "offset": 0,
          "maxChannels": 8,
          "sampleRate": 44100,
          "blockSize": 256
        }
      },
      "pos": [
        0,
        2
      ]
    },
    {
      "plugin": "JW-Modules",
      "version": "0.6.3",
      "model": "FullScope",
      "params": [
        {
          "paramId": 1,
          "value": 0.0
        },
        {
          "paramId": 3,
          "value": 0.0
        },
        {
          "paramId": 0,
          "value": 1.0
        },
        {
          "paramId": 2,
          "value": 1.0
        },
        {
          "paramId": 8,
          "value": 0.0
        },
        {
          "paramId": 4,
          "value": -14.0
        }
      ],
      "data": {
        "lissajous": 1,
        "external": 0
      },
      "width": 345.0,
      "height": 380.0,
      "pos": [
        10,
        2
      ]
    },
    {
      "plugin": "cf",
      "version": "0.6.8",
      "model": "PLAY",
      "params": [
        {
          "paramId": 2,
          "value": 0.0
        },
        {
          "paramId": 0,
          "value": 0.0
        },
        {
          "paramId": 1,
          "value": 0.0
        }
      ],
      "data": {
        "lastPath": "/Users/matthew.brennan/Music/Ableton/User Library/707 Samples/Kick 1 R1.wav"
      },
      "pos": [
        20,
        0
      ]
    },
    {
      "plugin": "Valley",
      "version": "0.6.16",
      "model": "uGraph",
      "params": [
        {
          "paramId": 2,
          "value": 0.405999988
        },
        {
          "paramId": 3,
          "value": 0.154500037
        },
        {
          "paramId": 4,
          "value": 0.431999922
        },
        {
          "paramId": 5,
          "value": 0.0
        },
        {
          "paramId": 6,
          "value": 0.5
        },
        {
          "paramId": 7,
          "value": 0.5
        },
        {
          "paramId": 8,
          "value": 0.5
        },
        {
          "paramId": 9,
          "value": 0.0
        },
        {
          "paramId": 0,
          "value": 0.0
        },
        {
          "paramId": 1,
          "value": 0.0
        }
      ],
      "data": {
        "sequencerMode": 0,
        "triggerOutputMode": 0,
        "accOutputMode": 0,
        "extClockResolution": 0,
        "chaosKnobMode": 0,
        "runMode": 0,
        "panelStyle": 0,
        "running": 0
      },
      "pos": [
        10,
        0
      ]
    },
    {
      "plugin": "cf",
      "version": "0.6.8",
      "model": "PLAY",
      "params": [
        {
          "paramId": 2,
          "value": 0.0
        },
        {
          "paramId": 0,
          "value": 0.0
        },
        {
          "paramId": 1,
          "value": 0.0
        }
      ],
      "data": {
        "lastPath": "/Users/matthew.brennan/Music/Ableton/User Library/707 Samples/Hat Closed R1.wav"
      },
      "pos": [
        24,
        0
      ]
    },
    {
      "plugin": "cf",
      "version": "0.6.8",
      "model": "PLAY",
      "params": [
        {
          "paramId": 2,
          "value": 0.0
        },
        {
          "paramId": 0,
          "value": 0.0
        },
        {
          "paramId": 1,
          "value": 0.0
        }
      ],
      "data": {
        "lastPath": "/Users/matthew.brennan/Music/Ableton/User Library/707 Samples/Snare 1 R2.wav"
      },
      "pos": [
        22,
        0
      ]
    },
    {
      "plugin": "Bogaudio",
      "version": "0.6.13",
      "model": "Bogaudio-Mix8",
      "params": [
        {
          "paramId": 0,
          "value": 0.909090936
        },
        {
          "paramId": 1,
          "value": 0.0
        },
        {
          "paramId": 2,
          "value": 0.0
        },
        {
          "paramId": 3,
          "value": 0.909090936
        },
        {
          "paramId": 4,
          "value": 0.0
        },
        {
          "paramId": 5,
          "value": 0.0
        },
        {
          "paramId": 6,
          "value": 0.909090936
        },
        {
          "paramId": 7,
          "value": 0.0
        },
        {
          "paramId": 8,
          "value": 0.0
        },
        {
          "paramId": 9,
          "value": 0.909090936
        },
        {
          "paramId": 10,
          "value": 0.0
        },
        {
          "paramId": 11,
          "value": 0.0
        },
        {
          "paramId": 12,
          "value": 0.909090936
        },
        {
          "paramId": 13,
          "value": 0.0
        },
        {
          "paramId": 14,
          "value": 0.0
        },
        {
          "paramId": 15,
          "value": 0.909090936
        },
        {
          "paramId": 16,
          "value": 0.0
        },
        {
          "paramId": 17,
          "value": 0.0
        },
        {
          "paramId": 18,
          "value": 0.909090936
        },
        {
          "paramId": 19,
          "value": 0.0
        },
        {
          "paramId": 20,
          "value": 0.0
        },
        {
          "paramId": 21,
          "value": 0.909090936
        },
        {
          "paramId": 22,
          "value": 0.0
        },
        {
          "paramId": 23,
          "value": 0.0
        },
        {
          "paramId": 24,
          "value": 0.909090936
        },
        {
          "paramId": 25,
          "value": 0.0
        }
      ],
      "pos": [
        0,
        1
      ]
    },
    {
      "plugin": "Bogaudio",
      "version": "0.6.13",
      "model": "Bogaudio-Mix4",
      "params": [
        {
          "paramId": 0,
          "value": 0.909090936
        },
        {
          "paramId": 1,
          "value": 0.0
        },
        {
          "paramId": 2,
          "value": 0.0
        },
        {
          "paramId": 3,
          "value": 0.909090936
        },
        {
          "paramId": 4,
          "value": 0.0
        },
        {
          "paramId": 5,
          "value": 0.0
        },
        {
          "paramId": 6,
          "value": 0.909090936
        },
        {
          "paramId": 7,
          "value": 0.0
        },
        {
          "paramId": 8,
          "value": 0.0
        },
        {
          "paramId": 9,
          "value": 0.909090936
        },
        {
          "paramId": 10,
          "value": 0.0
        },
        {
          "paramId": 11,
          "value": 0.0
        },
        {
          "paramId": 12,
          "value": 0.909090936
        },
        {
          "paramId": 13,
          "value": 0.0
        }
      ],
      "pos": [
        26,
        0
      ]
    },
    {
      "plugin": "HetrickCV",
      "version": "0.6.0",
      "model": "Waveshaper",
      "params": [
        {
          "paramId": 0,
          "value": 1.7500037
        },
        {
          "paramId": 1,
          "value": 1.0
        },
        {
          "paramId": 2,
          "value": 0.0
        }
      ],
      "pos": [
        41,
        0
      ]
    },
    {
      "plugin": "AS",
      "version": "0.6.13",
      "model": "TriLFO",
      "params": [
        {
          "paramId": 2,
          "value": -5.36799908
        },
        {
          "paramId": 0,
          "value": 1.0
        },
        {
          "paramId": 1,
          "value": 1.0
        },
        {
          "paramId": 5,
          "value": -4.54900026
        },
        {
          "paramId": 3,
          "value": 1.0
        },
        {
          "paramId": 4,
          "value": 1.0
        },
        {
          "paramId": 8,
          "value": -6.4180007
        },
        {
          "paramId": 6,
          "value": 1.0
        },
        {
          "paramId": 7,
          "value": 1.0
        }
      ],
      "pos": [
        0,
        0
      ]
    },
    {
      "plugin": "rcm",
      "version": "0.6.13",
      "model": "rcm-pianoroll",
      "params": [],
      "data": {
        "patterns": [
          {
            "numberOfMeasures": 1,
            "beatsPerMeasure": 4,
            "divisionsPerBeat": 4,
            "measures": [
              {
                "notes": [
                  {
                    "pitch": 53,
                    "velocity": 0.75,
                    "retrigger": false,
                    "active": true
                  },
                  {
                    "pitch": 55,
                    "velocity": 0.75,
                    "retrigger": false,
                    "active": true
                  },
                  {
                    "pitch": 51,
                    "velocity": 0.75,
                    "retrigger": false,
                    "active": true
                  },
                  {
                    "pitch": 0,
                    "velocity": 0.0,
                    "retrigger": false,
                    "active": false
                  },
                  {
                    "pitch": 58,
                    "velocity": 0.75,
                    "retrigger": false,
                    "active": true
                  },
                  {
                    "pitch": 58,
                    "velocity": 0.75,
                    "retrigger": false,
                    "active": true
                  },
                  {
                    "pitch": 0,
                    "velocity": 0.0,
                    "retrigger": false,
                    "active": false
                  },
                  {
                    "pitch": 55,
                    "velocity": 0.75,
                    "retrigger": false,
                    "active": true
                  },
                  {
                    "pitch": 60,
                    "velocity": 0.75,
                    "retrigger": false,
                    "active": true
                  },
                  {
                    "pitch": 0,
                    "velocity": 0.0,
                    "retrigger": false,
                    "active": false
                  },
                  {
                    "pitch": 56,
                    "velocity": 0.75,
                    "retrigger": false,
                    "active": true
                  },
                  {
                    "pitch": 56,
                    "velocity": 0.75,
                    "retrigger": false,
                    "active": true
                  },
                  {
                    "pitch": 63,
                    "velocity": 0.75,
                    "retrigger": false,
                    "active": true
                  },
                  {
                    "pitch": 60,
                    "velocity": 0.75,
                    "retrigger": false,
                    "active": true
                  },
                  {
                    "pitch": 56,
                    "velocity": 0.75,
                    "retrigger": false,
                    "active": true
                  },
                  {
                    "pitch": 0,
                    "velocity": 0.0,
                    "retrigger": false,
                    "active": false
                  }
                ]
              },
              {
                "notes": [
                  {
                    "pitch": 0,
                    "velocity": 0.0,
                    "retrigger": false,
                    "active": false
                  },
                  {
                    "pitch": 0,
                    "velocity": 0.0,
                    "retrigger": false,
                    "active": false
                  },
                  {
                    "pitch": 0,
                    "velocity": 0.0,
                    "retrigger": false,
                    "active": false
                  },
                  {
                    "pitch": 0,
                    "velocity": 0.0,
                    "retrigger": false,
                    "active": false
                  },
                  {
                    "pitch": 0,
                    "velocity": 0.0,
                    "retrigger": false,
                    "active": false
                  },
                  {
                    "pitch": 0,
                    "velocity": 0.0,
                    "retrigger": false,
                    "active": false
                  },
                  {
                    "pitch": 0,
                    "velocity": 0.0,
                    "retrigger": false,
                    "active": false
                  },
                  {
                    "pitch": 0,
                    "velocity": 0.0,
                    "retrigger": false,
                    "active": false
                  },
                  {
                    "pitch": 0,
                    "velocity": 0.0,
                    "retrigger": false,
                    "active": false
                  },
                  {
                    "pitch": 0,
                    "velocity": 0.0,
                    "retrigger": false,
                    "active": false
                  },
                  {
                    "pitch": 0,
                    "velocity": 0.0,
                    "retrigger": false,
                    "active": false
                  },
                  {
                    "pitch": 0,
                    "velocity": 0.0,
                    "retrigger": false,
                    "active": false
                  },
                  {
                    "pitch": 0,
                    "velocity": 0.0,
                    "retrigger": false,
                    "active": false
                  },
                  {
                    "pitch": 0,
                    "velocity": 0.0,
                    "retrigger": false,
                    "active": false
                  },
                  {
                    "pitch": 0,
                    "velocity": 0.0,
                    "retrigger": false,
                    "active": false
                  },
                  {
                    "pitch": 0,
                    "velocity": 0.0,
                    "retrigger": false,
                    "active": false
                  }
                ]
              }
            ]
          }
        ],
        "currentPattern": 0,
        "currentStep": 0,
        "clockDelay": 0,
        "sequenceRunning": true
      },
      "backgroundHue": 0.5,
      "backgroundSaturation": 1.0,
      "backgroundLuminosity": 0.25,
      "lowestDisplayNote": 48,
      "notesToShow": 18,
      "currentMeasure": 0,
      "pos": [
        47,
        0
      ]
    },
    {
      "plugin": "VultModulesFree",
      "version": "0.6.26",
      "model": "Lateralus",
      "params": [
        {
          "paramId": 0,
          "value": 0.286999881
        },
        {
          "paramId": 1,
          "value": 0.594000101
        },
        {
          "paramId": 2,
          "value": 0.0
        },
        {
          "paramId": 3,
          "value": 0.0
        },
        {
          "paramId": 4,
          "value": 1.11300015
        },
        {
          "paramId": 5,
          "value": 0.0
        }
      ],
      "pos": [
        51,
        1
      ]
    },
    {
      "plugin": "VultModulesFree",
      "version": "0.6.26",
      "model": "Bleak",
      "params": [
        {
          "paramId": 0,
          "value": 0.0
        },
        {
          "paramId": 1,
          "value": 0.0
        },
        {
          "paramId": 2,
          "value": 0.333499998
        },
        {
          "paramId": 4,
          "value": 0.5
        },
        {
          "paramId": 3,
          "value": 0.0
        },
        {
          "paramId": 5,
          "value": 0.0
        }
      ],
      "pos": [
        45,
        1
      ]
    },
    {
      "plugin": "Bogaudio",
      "version": "0.6.13",
      "model": "Bogaudio-ADSR",
      "params": [
        {
          "paramId": 0,
          "value": 0.119999997
        },
        {
          "paramId": 1,
          "value": 0.316229999
        },
        {
          "paramId": 2,
          "value": 1.0
        },
        {
          "paramId": 3,
          "value": 0.316229999
        },
        {
          "paramId": 4,
          "value": 0.0
        }
      ],
      "pos": [
        61,
        1
      ]
    },
    {
      "plugin": "JW-Modules",
      "version": "0.6.3",
      "model": "SimpleClock",
      "params": [
        {
          "paramId": 1,
          "value": 0.0
        },
        {
          "paramId": 0,
          "value": 1.0
        },
        {
          "paramId": 3,
          "value": 0.0
        },
        {
          "paramId": 2,
          "value": -2.0
        }
      ],
      "data": {
        "running": true
      },
      "pos": [
        87,
        0
      ]
    }
  ],
  "wires": [
    {
      "color": "#0c8e15",
      "outputModuleId": 3,
      "outputId": 0,
      "inputModuleId": 2,
      "inputId": 0
    },
    {
      "color": "#0986ad",
      "outputModuleId": 3,
      "outputId": 2,
      "inputModuleId": 4,
      "inputId": 0
    },
    {
      "color": "#c91847",
      "outputModuleId": 3,
      "outputId": 1,
      "inputModuleId": 5,
      "inputId": 0
    },
    {
      "color": "#c91847",
      "outputModuleId": 6,
      "outputId": 0,
      "inputModuleId": 1,
      "inputId": 0
    },
    {
      "color": "#0c8e15",
      "outputModuleId": 6,
      "outputId": 1,
      "inputModuleId": 1,
      "inputId": 1
    },
    {
      "color": "#0986ad",
      "outputModuleId": 6,
      "outputId": 0,
      "inputModuleId": 0,
      "inputId": 0
    },
    {
      "color": "#c9b70e",
      "outputModuleId": 6,
      "outputId": 1,
      "inputModuleId": 0,
      "inputId": 1
    },
    {
      "color": "#c91847",
      "outputModuleId": 2,
      "outputId": 0,
      "inputModuleId": 7,
      "inputId": 2
    },
    {
      "color": "#0c8e15",
      "outputModuleId": 5,
      "outputId": 0,
      "inputModuleId": 7,
      "inputId": 5
    },
    {
      "color": "#0986ad",
      "outputModuleId": 4,
      "outputId": 0,
      "inputModuleId": 7,
      "inputId": 8
    },
    {
      "color": "#c91847",
      "outputModuleId": 7,
      "outputId": 0,
      "inputModuleId": 8,
      "inputId": 0
    },
    {
      "color": "#0c8e15",
      "outputModuleId": 8,
      "outputId": 0,
      "inputModuleId": 6,
      "inputId": 2
    },
    {
      "color": "#c9b70e",
      "outputModuleId": 9,
      "outputId": 0,
      "inputModuleId": 3,
      "inputId": 2
    },
    {
      "color": "#c91847",
      "outputModuleId": 9,
      "outputId": 4,
      "inputModuleId": 3,
      "inputId": 3
    },
    {
      "color": "#0c8e15",
      "outputModuleId": 9,
      "outputId": 8,
      "inputModuleId": 3,
      "inputId": 4
    },
    {
      "color": "#0986ad",
      "outputModuleId": 10,
      "outputId": 5,
      "inputModuleId": 12,
      "inputId": 0
    },
    {
      "color": "#c91847",
      "outputModuleId": 13,
      "outputId": 0,
      "inputModuleId": 11,
      "inputId": 1
    },
    {
      "color": "#0c8e15",
      "outputModuleId": 12,
      "outputId": 0,
      "inputModuleId": 11,
      "inputId": 0
    },
    {
      "color": "#0986ad",
      "outputModuleId": 14,
      "outputId": 0,
      "inputModuleId": 10,
      "inputId": 0
    },
    {
      "color": "#c9b70e",
      "outputModuleId": 10,
      "outputId": 6,
      "inputModuleId": 13,
      "inputId": 0
    },
    {
      "color": "#c91847",
      "outputModuleId": 11,
      "outputId": 1,
      "inputModuleId": 6,
      "inputId": 5
    },
    {
      "color": "#0c8e15",
      "outputModuleId": 13,
      "outputId": 0,
      "inputModuleId": 6,
      "inputId": 3
    }
  ]
}