{
  "version": "0.6.0",
  "modules": [
    {
      "plugin": "Core",
      "version": "0.6.0",
      "model": "AudioInterface",
      "pos": [
        0,
        0
      ],
      "params": [],
      "data": {
        "audio": {
          "driver": 5,
          "deviceName": "Apple Inc.: Built-in Output",
          "offset": 0,
          "maxChannels": 8,
          "sampleRate": 44100,
          "blockSize": 256
        }
      }
    },
    {
      "plugin": "JW-Modules",
      "version": "0.6.1",
      "model": "FullScope",
      "pos": [
        10,
        0
      ],
      "params": [
        {
          "paramId": 1,
          "value": 0.0
        },
        {
          "paramId": 3,
          "value": 0.0
        },
        {
          "paramId": 0,
          "value": 1.0
        },
        {
          "paramId": 2,
          "value": 1.0
        },
        {
          "paramId": 8,
          "value": 0.0
        },
        {
          "paramId": 4,
          "value": -14.0
        }
      ],
      "data": {
        "lissajous": 1,
        "external": 0
      },
      "width": 255.0
    },
    {
      "plugin": "AS",
      "version": "0.6.8",
      "model": "Mixer8ch",
      "pos": [
        27,
        0
      ],
      "params": [
        {
          "paramId": 9,
          "value": 0.0
        },
        {
          "paramId": 10,
          "value": 1.0
        },
        {
          "paramId": 11,
          "value": 0.0
        },
        {
          "paramId": 12,
          "value": -1.0
        },
        {
          "paramId": 13,
          "value": 1.0
        },
        {
          "paramId": 14,
          "value": 0.0
        },
        {
          "paramId": 15,
          "value": 0.0
        },
        {
          "paramId": 16,
          "value": 0.0
        },
        {
          "paramId": 1,
          "value": 0.801500022
        },
        {
          "paramId": 2,
          "value": 0.800000012
        },
        {
          "paramId": 3,
          "value": 0.800000012
        },
        {
          "paramId": 4,
          "value": 1.0
        },
        {
          "paramId": 5,
          "value": 1.0
        },
        {
          "paramId": 6,
          "value": 0.800000012
        },
        {
          "paramId": 7,
          "value": 0.800000012
        },
        {
          "paramId": 8,
          "value": 0.800000012
        },
        {
          "paramId": 17,
          "value": 0.0
        },
        {
          "paramId": 18,
          "value": 0.0
        },
        {
          "paramId": 19,
          "value": 0.0
        },
        {
          "paramId": 20,
          "value": 0.0
        },
        {
          "paramId": 21,
          "value": 0.0
        },
        {
          "paramId": 22,
          "value": 0.0
        },
        {
          "paramId": 23,
          "value": 0.0
        },
        {
          "paramId": 24,
          "value": 0.0
        },
        {
          "paramId": 0,
          "value": 0.800000012
        },
        {
          "paramId": 25,
          "value": 0.0
        }
      ],
      "data": {
        "as_MixerMutes": [
          0,
          0,
          0,
          0,
          0,
          0,
          0,
          0,
          0
        ]
      }
    },
    {
      "plugin": "AudibleInstruments",
      "version": "0.6.0",
      "model": "Braids",
      "pos": [
        34,
        1
      ],
      "params": [
        {
          "paramId": 6,
          "value": 0.951999843
        },
        {
          "paramId": 0,
          "value": 0.0
        },
        {
          "paramId": 1,
          "value": -1.48399985
        },
        {
          "paramId": 2,
          "value": 0.0
        },
        {
          "paramId": 3,
          "value": 0.156500652
        },
        {
          "paramId": 4,
          "value": 0.27000016
        },
        {
          "paramId": 5,
          "value": 0.5
        }
      ],
      "data": {
        "settings": [
          44,
          0,
          0,
          0,
          0,
          0,
          0,
          0,
          0,
          0,
          0,
          0,
          0,
          0,
          0,
          0,
          0,
          0,
          0,
          0
        ],
        "lowCpu": false
      }
    },
    {
      "plugin": "JW-Modules",
      "version": "0.6.1",
      "model": "GridSeq",
      "pos": [
        50,
        1
      ],
      "params": [
        {
          "paramId": 0,
          "value": 0.0
        },
        {
          "paramId": 2,
          "value": 0.0
        },
        {
          "paramId": 39,
          "value": 0.0
        },
        {
          "paramId": 40,
          "value": 0.0
        },
        {
          "paramId": 41,
          "value": 0.0
        },
        {
          "paramId": 42,
          "value": 0.0
        },
        {
          "paramId": 43,
          "value": 0.0
        },
        {
          "paramId": 44,
          "value": 0.0
        },
        {
          "paramId": 36,
          "value": 0.0
        },
        {
          "paramId": 37,
          "value": 11.0
        },
        {
          "paramId": 38,
          "value": 0.0
        },
        {
          "paramId": 35,
          "value": 0.0
        },
        {
          "paramId": 45,
          "value": 3.0
        },
        {
          "paramId": 3,
          "value": 9.33208179
        },
        {
          "paramId": 19,
          "value": 0.0
        },
        {
          "paramId": 4,
          "value": 4.75431967
        },
        {
          "paramId": 20,
          "value": 1.0
        },
        {
          "paramId": 5,
          "value": 7.30930233
        },
        {
          "paramId": 21,
          "value": 1.0
        },
        {
          "paramId": 6,
          "value": 0.103490353
        },
        {
          "paramId": 22,
          "value": 1.0
        },
        {
          "paramId": 7,
          "value": 2.99198103
        },
        {
          "paramId": 23,
          "value": 0.0
        },
        {
          "paramId": 8,
          "value": 7.82979107
        },
        {
          "paramId": 24,
          "value": 0.0
        },
        {
          "paramId": 9,
          "value": 6.73753977
        },
        {
          "paramId": 25,
          "value": 0.0
        },
        {
          "paramId": 10,
          "value": 3.30855131
        },
        {
          "paramId": 26,
          "value": 0.0
        },
        {
          "paramId": 11,
          "value": 6.32264996
        },
        {
          "paramId": 27,
          "value": 0.0
        },
        {
          "paramId": 12,
          "value": 0.661755204
        },
        {
          "paramId": 28,
          "value": 0.0
        },
        {
          "paramId": 13,
          "value": 3.3716321
        },
        {
          "paramId": 29,
          "value": 1.0
        },
        {
          "paramId": 14,
          "value": 3.98225307
        },
        {
          "paramId": 30,
          "value": 0.0
        },
        {
          "paramId": 15,
          "value": 6.1184926
        },
        {
          "paramId": 31,
          "value": 1.0
        },
        {
          "paramId": 16,
          "value": 4.89456177
        },
        {
          "paramId": 32,
          "value": 1.0
        },
        {
          "paramId": 17,
          "value": 5.5150466
        },
        {
          "paramId": 33,
          "value": 0.0
        },
        {
          "paramId": 18,
          "value": 6.97890377
        },
        {
          "paramId": 34,
          "value": 1.0
        }
      ],
      "data": {
        "running": true,
        "ignoreGateOnPitchOut": false,
        "gates": [
          0,
          0,
          0,
          1,
          1,
          1,
          1,
          0,
          1,
          0,
          0,
          1,
          0,
          0,
          1,
          1
        ],
        "gateMode": 0
      }
    },
    {
      "plugin": "cf",
      "version": "0.6.0",
      "model": "METRO",
      "pos": [
        70,
        1
      ],
      "params": [
        {
          "paramId": 0,
          "value": 120.099998
        },
        {
          "paramId": 3,
          "value": 0.0
        },
        {
          "paramId": 1,
          "value": 0.0
        },
        {
          "paramId": 2,
          "value": 0.0
        }
      ],
      "data": {
        "onstate": 1
      }
    },
    {
      "plugin": "AudibleInstruments",
      "version": "0.6.0",
      "model": "Elements",
      "pos": [
        0,
        1
      ],
      "params": [
        {
          "paramId": 0,
          "value": 0.432991922
        },
        {
          "paramId": 1,
          "value": 0.0634167194
        },
        {
          "paramId": 2,
          "value": 0.492509663
        },
        {
          "paramId": 3,
          "value": 0.714016914
        },
        {
          "paramId": 4,
          "value": -24.249218
        },
        {
          "paramId": 5,
          "value": 0.582327366
        },
        {
          "paramId": 6,
          "value": 0.348961234
        },
        {
          "paramId": 7,
          "value": 0.566964149
        },
        {
          "paramId": 8,
          "value": 0.560182333
        },
        {
          "paramId": 9,
          "value": 0.276001573
        },
        {
          "paramId": 10,
          "value": 0.0
        },
        {
          "paramId": 11,
          "value": 0.28580296
        },
        {
          "paramId": 12,
          "value": 0.186035931
        },
        {
          "paramId": 13,
          "value": 0.362995207
        },
        {
          "paramId": 14,
          "value": 0.592999935
        },
        {
          "paramId": 15,
          "value": 0.292000026
        },
        {
          "paramId": 16,
          "value": 1.32453418
        },
        {
          "paramId": 17,
          "value": 0.290649891
        },
        {
          "paramId": 18,
          "value": 0.538623691
        },
        {
          "paramId": 19,
          "value": 0.775900722
        },
        {
          "paramId": 20,
          "value": -0.425611973
        },
        {
          "paramId": 21,
          "value": -0.66135931
        },
        {
          "paramId": 22,
          "value": -0.690254807
        },
        {
          "paramId": 23,
          "value": 0.612779856
        },
        {
          "paramId": 24,
          "value": 0.00544154644
        },
        {
          "paramId": 25,
          "value": -0.652495503
        },
        {
          "paramId": 26,
          "value": 0.71396637
        },
        {
          "paramId": 27,
          "value": 0.0
        }
      ],
      "data": {
        "model": 0
      }
    },
    {
      "plugin": "AS",
      "version": "0.6.8",
      "model": "TriLFO",
      "pos": [
        53,
        0
      ],
      "params": [
        {
          "paramId": 2,
          "value": -3.37299943
        },
        {
          "paramId": 0,
          "value": 1.0
        },
        {
          "paramId": 1,
          "value": 1.0
        },
        {
          "paramId": 5,
          "value": -2.46999979
        },
        {
          "paramId": 3,
          "value": 1.0
        },
        {
          "paramId": 4,
          "value": 1.0
        },
        {
          "paramId": 8,
          "value": -8.0
        },
        {
          "paramId": 6,
          "value": 1.0
        },
        {
          "paramId": 7,
          "value": 0.0
        }
      ]
    },
    {
      "plugin": "SynthKit",
      "version": "0.6.0",
      "model": "Clock Divider",
      "pos": [
        76,
        1
      ],
      "params": []
    },
    {
      "plugin": "SynthKit",
      "version": "0.6.0",
      "model": "Clock Divider",
      "pos": [
        79,
        1
      ],
      "params": []
    }
  ],
  "wires": [
    {
      "color": {
        "r": 0.788235366,
        "g": 0.717647076,
        "b": 0.054901965,
        "a": 1.0
      },
      "outputModuleId": 2,
      "outputId": 0,
      "inputModuleId": 1,
      "inputId": 0
    },
    {
      "color": {
        "r": 0.788235366,
        "g": 0.0941176564,
        "b": 0.278431386,
        "a": 1.0
      },
      "outputModuleId": 2,
      "outputId": 1,
      "inputModuleId": 1,
      "inputId": 1
    },
    {
      "color": {
        "r": 0.0352941193,
        "g": 0.525490224,
        "b": 0.678431392,
        "a": 1.0
      },
      "outputModuleId": 2,
      "outputId": 0,
      "inputModuleId": 0,
      "inputId": 0
    },
    {
      "color": {
        "r": 0.788235366,
        "g": 0.717647076,
        "b": 0.054901965,
        "a": 1.0
      },
      "outputModuleId": 2,
      "outputId": 1,
      "inputModuleId": 0,
      "inputId": 1
    },
    {
      "color": {
        "r": 0.0352941193,
        "g": 0.525490224,
        "b": 0.678431392,
        "a": 1.0
      },
      "outputModuleId": 4,
      "outputId": 0,
      "inputModuleId": 6,
      "inputId": 2
    },
    {
      "color": {
        "r": 0.788235366,
        "g": 0.717647076,
        "b": 0.054901965,
        "a": 1.0
      },
      "outputModuleId": 4,
      "outputId": 1,
      "inputModuleId": 6,
      "inputId": 0
    },
    {
      "color": {
        "r": 0.788235366,
        "g": 0.717647076,
        "b": 0.054901965,
        "a": 1.0
      },
      "outputModuleId": 7,
      "outputId": 4,
      "inputModuleId": 6,
      "inputId": 14
    },
    {
      "color": {
        "r": 0.788235366,
        "g": 0.0941176564,
        "b": 0.278431386,
        "a": 1.0
      },
      "outputModuleId": 7,
      "outputId": 0,
      "inputModuleId": 6,
      "inputId": 11
    },
    {
      "color": {
        "r": 0.0352941193,
        "g": 0.525490224,
        "b": 0.678431392,
        "a": 1.0
      },
      "outputModuleId": 7,
      "outputId": 8,
      "inputModuleId": 3,
      "inputId": 3
    },
    {
      "color": {
        "r": 0.788235366,
        "g": 0.717647076,
        "b": 0.054901965,
        "a": 1.0
      },
      "outputModuleId": 6,
      "outputId": 0,
      "inputModuleId": 2,
      "inputId": 10
    },
    {
      "color": {
        "r": 0.788235366,
        "g": 0.0941176564,
        "b": 0.278431386,
        "a": 1.0
      },
      "outputModuleId": 6,
      "outputId": 1,
      "inputModuleId": 2,
      "inputId": 13
    },
    {
      "color": {
        "r": 0.788235366,
        "g": 0.717647076,
        "b": 0.054901965,
        "a": 1.0
      },
      "outputModuleId": 3,
      "outputId": 0,
      "inputModuleId": 2,
      "inputId": 1
    },
    {
      "color": {
        "r": 0.788235366,
        "g": 0.0941176564,
        "b": 0.278431386,
        "a": 1.0
      },
      "outputModuleId": 5,
      "outputId": 2,
      "inputModuleId": 8,
      "inputId": 0
    },
    {
      "color": {
        "r": 0.0470588282,
        "g": 0.556862772,
        "b": 0.0823529437,
        "a": 1.0
      },
      "outputModuleId": 8,
      "outputId": 3,
      "inputModuleId": 4,
      "inputId": 5
    },
    {
      "color": {
        "r": 0.0352941193,
        "g": 0.525490224,
        "b": 0.678431392,
        "a": 1.0
      },
      "outputModuleId": 8,
      "outputId": 0,
      "inputModuleId": 4,
      "inputId": 3
    },
    {
      "color": {
        "r": 0.788235366,
        "g": 0.717647076,
        "b": 0.054901965,
        "a": 1.0
      },
      "outputModuleId": 8,
      "outputId": 7,
      "inputModuleId": 4,
      "inputId": 10
    },
    {
      "color": {
        "r": 0.788235366,
        "g": 0.0941176564,
        "b": 0.278431386,
        "a": 1.0
      },
      "outputModuleId": 8,
      "outputId": 7,
      "inputModuleId": 9,
      "inputId": 0
    },
    {
      "color": {
        "r": 0.0470588282,
        "g": 0.556862772,
        "b": 0.0823529437,
        "a": 1.0
      },
      "outputModuleId": 9,
      "outputId": 7,
      "inputModuleId": 4,
      "inputId": 9
    }
  ]
}