{
  "version": "0.6.0",
  "modules": [
    {
      "plugin": "Core",
      "version": "0.6.0",
      "model": "AudioInterface",
      "pos": [
        0,
        0
      ],
      "params": [],
      "data": {
        "audio": {
          "driver": 5,
          "deviceName": "Apple Inc.: Built-in Output",
          "offset": 0,
          "maxChannels": 8,
          "sampleRate": 44100,
          "blockSize": 256
        }
      }
    },
    {
      "plugin": "JW-Modules",
      "version": "0.6.1",
      "model": "FullScope",
      "pos": [
        10,
        0
      ],
      "params": [
        {
          "paramId": 1,
          "value": 0.0
        },
        {
          "paramId": 3,
          "value": 0.0
        },
        {
          "paramId": 0,
          "value": 1.0
        },
        {
          "paramId": 2,
          "value": 1.0
        },
        {
          "paramId": 8,
          "value": 0.0
        },
        {
          "paramId": 4,
          "value": -14.0
        }
      ],
      "data": {
        "lissajous": 1,
        "external": 0
      },
      "width": 255.0
    },
    {
      "plugin": "AS",
      "version": "0.6.8",
      "model": "Mixer8ch",
      "pos": [
        27,
        0
      ],
      "params": [
        {
          "paramId": 9,
          "value": -1.0
        },
        {
          "paramId": 10,
          "value": 1.0
        },
        {
          "paramId": 11,
          "value": -1.0
        },
        {
          "paramId": 12,
          "value": 1.0
        },
        {
          "paramId": 13,
          "value": 0.0
        },
        {
          "paramId": 14,
          "value": 0.0
        },
        {
          "paramId": 15,
          "value": 0.0
        },
        {
          "paramId": 16,
          "value": 0.0
        },
        {
          "paramId": 1,
          "value": 0.800000012
        },
        {
          "paramId": 2,
          "value": 0.800000012
        },
        {
          "paramId": 3,
          "value": 0.800000012
        },
        {
          "paramId": 4,
          "value": 0.800000012
        },
        {
          "paramId": 5,
          "value": 0.800000012
        },
        {
          "paramId": 6,
          "value": 0.800000012
        },
        {
          "paramId": 7,
          "value": 0.800000012
        },
        {
          "paramId": 8,
          "value": 0.800000012
        },
        {
          "paramId": 17,
          "value": 0.0
        },
        {
          "paramId": 18,
          "value": 0.0
        },
        {
          "paramId": 19,
          "value": 0.0
        },
        {
          "paramId": 20,
          "value": 0.0
        },
        {
          "paramId": 21,
          "value": 0.0
        },
        {
          "paramId": 22,
          "value": 0.0
        },
        {
          "paramId": 23,
          "value": 0.0
        },
        {
          "paramId": 24,
          "value": 0.0
        },
        {
          "paramId": 0,
          "value": 0.800000012
        },
        {
          "paramId": 25,
          "value": 0.0
        }
      ],
      "data": {
        "as_MixerMutes": [
          0,
          0,
          0,
          0,
          0,
          0,
          0,
          0,
          0
        ]
      }
    },
    {
      "plugin": "BaconMusic",
      "version": "0.6.2",
      "model": "KarplusStrongPoly",
      "pos": [
        24,
        1
      ],
      "params": [
        {
          "paramId": 2,
          "value": 0.0
        },
        {
          "paramId": 0,
          "value": 4.0
        },
        {
          "paramId": 1,
          "value": 0.0
        },
        {
          "paramId": 4,
          "value": 0.5
        },
        {
          "paramId": 5,
          "value": 0.5
        },
        {
          "paramId": 6,
          "value": 0.5
        },
        {
          "paramId": 3,
          "value": 0.100000001
        }
      ]
    },
    {
      "plugin": "AudibleInstruments",
      "version": "0.6.0",
      "model": "Clouds",
      "pos": [
        39,
        1
      ],
      "params": [
        {
          "paramId": 3,
          "value": 1.0
        },
        {
          "paramId": 4,
          "value": 1.0
        },
        {
          "paramId": 5,
          "value": 0.0
        },
        {
          "paramId": 6,
          "value": 1.0
        },
        {
          "paramId": 7,
          "value": 1.0
        },
        {
          "paramId": 8,
          "value": 0.5
        },
        {
          "paramId": 9,
          "value": 0.5
        },
        {
          "paramId": 10,
          "value": 0.0
        },
        {
          "paramId": 11,
          "value": 0.0
        },
        {
          "paramId": 12,
          "value": 1.0
        },
        {
          "paramId": 0,
          "value": 0.0
        },
        {
          "paramId": 1,
          "value": 0.0
        },
        {
          "paramId": 2,
          "value": 0.0
        }
      ],
      "data": {
        "playback": 0,
        "quality": 0,
        "blendMode": 3
      }
    },
    {
      "plugin": "AudibleInstruments",
      "version": "0.6.0",
      "model": "Clouds",
      "pos": [
        57,
        1
      ],
      "params": [
        {
          "paramId": 3,
          "value": 1.0
        },
        {
          "paramId": 4,
          "value": 1.0
        },
        {
          "paramId": 5,
          "value": 0.0
        },
        {
          "paramId": 6,
          "value": 1.0
        },
        {
          "paramId": 7,
          "value": 0.936499953
        },
        {
          "paramId": 8,
          "value": 0.5
        },
        {
          "paramId": 9,
          "value": 0.5
        },
        {
          "paramId": 10,
          "value": 0.0
        },
        {
          "paramId": 11,
          "value": 0.0
        },
        {
          "paramId": 12,
          "value": 1.0
        },
        {
          "paramId": 0,
          "value": 0.0
        },
        {
          "paramId": 1,
          "value": 0.0
        },
        {
          "paramId": 2,
          "value": 0.0
        }
      ],
      "data": {
        "playback": 0,
        "quality": 0,
        "blendMode": 3
      }
    },
    {
      "plugin": "JW-Modules",
      "version": "0.6.1",
      "model": "GridSeq",
      "pos": [
        4,
        1
      ],
      "params": [
        {
          "paramId": 0,
          "value": 0.0
        },
        {
          "paramId": 2,
          "value": 0.0
        },
        {
          "paramId": 39,
          "value": 0.0
        },
        {
          "paramId": 40,
          "value": 0.0
        },
        {
          "paramId": 41,
          "value": 0.0
        },
        {
          "paramId": 42,
          "value": 0.0
        },
        {
          "paramId": 43,
          "value": 0.0
        },
        {
          "paramId": 44,
          "value": 0.0
        },
        {
          "paramId": 36,
          "value": 0.0
        },
        {
          "paramId": 37,
          "value": 9.0
        },
        {
          "paramId": 38,
          "value": 0.0
        },
        {
          "paramId": 35,
          "value": 0.0
        },
        {
          "paramId": 45,
          "value": 2.0
        },
        {
          "paramId": 3,
          "value": 0.531868339
        },
        {
          "paramId": 19,
          "value": 0.0
        },
        {
          "paramId": 4,
          "value": 5.29399586
        },
        {
          "paramId": 20,
          "value": 0.0
        },
        {
          "paramId": 5,
          "value": 3.12236118
        },
        {
          "paramId": 21,
          "value": 0.0
        },
        {
          "paramId": 6,
          "value": 2.15870023
        },
        {
          "paramId": 22,
          "value": 0.0
        },
        {
          "paramId": 7,
          "value": 7.5100379
        },
        {
          "paramId": 23,
          "value": 0.0
        },
        {
          "paramId": 8,
          "value": 2.95291543
        },
        {
          "paramId": 24,
          "value": 0.0
        },
        {
          "paramId": 9,
          "value": 1.53876424
        },
        {
          "paramId": 25,
          "value": 0.0
        },
        {
          "paramId": 10,
          "value": 3.44825506
        },
        {
          "paramId": 26,
          "value": 0.0
        },
        {
          "paramId": 11,
          "value": 0.622160435
        },
        {
          "paramId": 27,
          "value": 0.0
        },
        {
          "paramId": 12,
          "value": 6.26783752
        },
        {
          "paramId": 28,
          "value": 0.0
        },
        {
          "paramId": 13,
          "value": 5.71081877
        },
        {
          "paramId": 29,
          "value": 0.0
        },
        {
          "paramId": 14,
          "value": 0.487308502
        },
        {
          "paramId": 30,
          "value": 0.0
        },
        {
          "paramId": 15,
          "value": 7.28941393
        },
        {
          "paramId": 31,
          "value": 0.0
        },
        {
          "paramId": 16,
          "value": 2.62094975
        },
        {
          "paramId": 32,
          "value": 0.0
        },
        {
          "paramId": 17,
          "value": 9.81402206
        },
        {
          "paramId": 33,
          "value": 0.0
        },
        {
          "paramId": 18,
          "value": 9.7402029
        },
        {
          "paramId": 34,
          "value": 0.0
        }
      ],
      "data": {
        "running": true,
        "ignoreGateOnPitchOut": false,
        "gates": [
          1,
          1,
          1,
          1,
          1,
          1,
          1,
          1,
          1,
          1,
          1,
          1,
          1,
          1,
          1,
          1
        ],
        "gateMode": 0
      }
    },
    {
      "plugin": "JW-Modules",
      "version": "0.6.1",
      "model": "SimpleClock",
      "pos": [
        0,
        1
      ],
      "params": [
        {
          "paramId": 1,
          "value": 0.0
        },
        {
          "paramId": 0,
          "value": 1.44399989
        },
        {
          "paramId": 3,
          "value": 0.0
        },
        {
          "paramId": 2,
          "value": -2.0
        }
      ],
      "data": {
        "running": true
      }
    },
    {
      "plugin": "Valley",
      "version": "0.6.3",
      "model": "uGraph",
      "pos": [
        75,
        1
      ],
      "params": [
        {
          "paramId": 2,
          "value": 0.0
        },
        {
          "paramId": 3,
          "value": 0.0
        },
        {
          "paramId": 4,
          "value": 0.0
        },
        {
          "paramId": 5,
          "value": 0.0
        },
        {
          "paramId": 6,
          "value": 0.716000021
        },
        {
          "paramId": 7,
          "value": 0.691999972
        },
        {
          "paramId": 8,
          "value": 0.037499994
        },
        {
          "paramId": 9,
          "value": 0.0
        },
        {
          "paramId": 0,
          "value": 0.0
        },
        {
          "paramId": 1,
          "value": 0.0
        }
      ],
      "data": {
        "sequencerMode": 0,
        "triggerOutputMode": 0,
        "accOutputMode": 0,
        "extClockResolution": 0,
        "chaosKnobMode": 0,
        "runMode": 0,
        "panelStyle": 1,
        "running": 1
      }
    },
    {
      "plugin": "AudibleInstruments",
      "version": "0.6.0",
      "model": "Tides",
      "pos": [
        53,
        0
      ],
      "params": [
        {
          "paramId": 0,
          "value": 0.0
        },
        {
          "paramId": 1,
          "value": 0.0
        },
        {
          "paramId": 2,
          "value": -48.0
        },
        {
          "paramId": 3,
          "value": 0.0
        },
        {
          "paramId": 4,
          "value": 0.0
        },
        {
          "paramId": 5,
          "value": 0.0
        },
        {
          "paramId": 6,
          "value": 0.0
        }
      ],
      "data": {
        "mode": 1,
        "range": 1,
        "sheep": false
      }
    },
    {
      "plugin": "AudibleInstruments",
      "version": "0.6.0",
      "model": "Tides",
      "pos": [
        67,
        0
      ],
      "params": [
        {
          "paramId": 0,
          "value": 0.0
        },
        {
          "paramId": 1,
          "value": 0.0
        },
        {
          "paramId": 2,
          "value": -48.0
        },
        {
          "paramId": 3,
          "value": 0.0
        },
        {
          "paramId": 4,
          "value": 0.0
        },
        {
          "paramId": 5,
          "value": 0.0
        },
        {
          "paramId": 6,
          "value": 0.0
        }
      ],
      "data": {
        "mode": 1,
        "range": 1,
        "sheep": false
      }
    },
    {
      "plugin": "AS",
      "version": "0.6.8",
      "model": "TriLFO",
      "pos": [
        81,
        0
      ],
      "params": [
        {
          "paramId": 2,
          "value": -8.0
        },
        {
          "paramId": 0,
          "value": 1.0
        },
        {
          "paramId": 1,
          "value": 1.0
        },
        {
          "paramId": 5,
          "value": -6.88700008
        },
        {
          "paramId": 3,
          "value": 1.0
        },
        {
          "paramId": 4,
          "value": 0.0
        },
        {
          "paramId": 8,
          "value": -1.0
        },
        {
          "paramId": 6,
          "value": 1.0
        },
        {
          "paramId": 7,
          "value": 1.0
        }
      ]
    }
  ],
  "wires": [
    {
      "color": {
        "r": 0.788235366,
        "g": 0.717647076,
        "b": 0.054901965,
        "a": 1.0
      },
      "outputModuleId": 2,
      "outputId": 0,
      "inputModuleId": 1,
      "inputId": 0
    },
    {
      "color": {
        "r": 0.788235366,
        "g": 0.0941176564,
        "b": 0.278431386,
        "a": 1.0
      },
      "outputModuleId": 2,
      "outputId": 1,
      "inputModuleId": 1,
      "inputId": 1
    },
    {
      "color": {
        "r": 0.0470588282,
        "g": 0.556862772,
        "b": 0.0823529437,
        "a": 1.0
      },
      "outputModuleId": 2,
      "outputId": 0,
      "inputModuleId": 0,
      "inputId": 0
    },
    {
      "color": {
        "r": 0.0352941193,
        "g": 0.525490224,
        "b": 0.678431392,
        "a": 1.0
      },
      "outputModuleId": 2,
      "outputId": 1,
      "inputModuleId": 0,
      "inputId": 1
    },
    {
      "color": {
        "r": 0.788235366,
        "g": 0.717647076,
        "b": 0.054901965,
        "a": 1.0
      },
      "outputModuleId": 4,
      "outputId": 0,
      "inputModuleId": 5,
      "inputId": 6
    },
    {
      "color": {
        "r": 0.788235366,
        "g": 0.0941176564,
        "b": 0.278431386,
        "a": 1.0
      },
      "outputModuleId": 4,
      "outputId": 1,
      "inputModuleId": 5,
      "inputId": 7
    },
    {
      "color": {
        "r": 0.0470588282,
        "g": 0.556862772,
        "b": 0.0823529437,
        "a": 1.0
      },
      "outputModuleId": 3,
      "outputId": 0,
      "inputModuleId": 4,
      "inputId": 6
    },
    {
      "color": {
        "r": 0.0352941193,
        "g": 0.525490224,
        "b": 0.678431392,
        "a": 1.0
      },
      "outputModuleId": 3,
      "outputId": 0,
      "inputModuleId": 4,
      "inputId": 7
    },
    {
      "color": {
        "r": 0.788235366,
        "g": 0.717647076,
        "b": 0.054901965,
        "a": 1.0
      },
      "outputModuleId": 5,
      "outputId": 0,
      "inputModuleId": 2,
      "inputId": 1
    },
    {
      "color": {
        "r": 0.788235366,
        "g": 0.0941176564,
        "b": 0.278431386,
        "a": 1.0
      },
      "outputModuleId": 5,
      "outputId": 1,
      "inputModuleId": 2,
      "inputId": 4
    },
    {
      "color": {
        "r": 0.0352941193,
        "g": 0.525490224,
        "b": 0.678431392,
        "a": 1.0
      },
      "outputModuleId": 6,
      "outputId": 0,
      "inputModuleId": 3,
      "inputId": 0
    },
    {
      "color": {
        "r": 0.788235366,
        "g": 0.717647076,
        "b": 0.054901965,
        "a": 1.0
      },
      "outputModuleId": 7,
      "outputId": 2,
      "inputModuleId": 6,
      "inputId": 8
    },
    {
      "color": {
        "r": 0.0352941193,
        "g": 0.525490224,
        "b": 0.678431392,
        "a": 1.0
      },
      "outputModuleId": 6,
      "outputId": 1,
      "inputModuleId": 3,
      "inputId": 3
    },
    {
      "color": {
        "r": 0.788235366,
        "g": 0.0941176564,
        "b": 0.278431386,
        "a": 1.0
      },
      "outputModuleId": 8,
      "outputId": 0,
      "inputModuleId": 4,
      "inputId": 1
    },
    {
      "color": {
        "r": 0.0470588282,
        "g": 0.556862772,
        "b": 0.0823529437,
        "a": 1.0
      },
      "outputModuleId": 8,
      "outputId": 1,
      "inputModuleId": 5,
      "inputId": 1
    },
    {
      "color": {
        "r": 0.788235366,
        "g": 0.0941176564,
        "b": 0.278431386,
        "a": 1.0
      },
      "outputModuleId": 7,
      "outputId": 0,
      "inputModuleId": 8,
      "inputId": 0
    },
    {
      "color": {
        "r": 0.788235366,
        "g": 0.717647076,
        "b": 0.054901965,
        "a": 1.0
      },
      "outputModuleId": 9,
      "outputId": 2,
      "inputModuleId": 10,
      "inputId": 0
    },
    {
      "color": {
        "r": 0.788235366,
        "g": 0.0941176564,
        "b": 0.278431386,
        "a": 1.0
      },
      "outputModuleId": 10,
      "outputId": 3,
      "inputModuleId": 8,
      "inputId": 5
    },
    {
      "color": {
        "r": 0.0352941193,
        "g": 0.525490224,
        "b": 0.678431392,
        "a": 1.0
      },
      "outputModuleId": 9,
      "outputId": 3,
      "inputModuleId": 8,
      "inputId": 6
    },
    {
      "color": {
        "r": 0.788235366,
        "g": 0.717647076,
        "b": 0.054901965,
        "a": 1.0
      },
      "outputModuleId": 9,
      "outputId": 3,
      "inputModuleId": 10,
      "inputId": 2
    },
    {
      "color": {
        "r": 0.788235366,
        "g": 0.0941176564,
        "b": 0.278431386,
        "a": 1.0
      },
      "outputModuleId": 10,
      "outputId": 2,
      "inputModuleId": 9,
      "inputId": 0
    },
    {
      "color": {
        "r": 0.788235366,
        "g": 0.0941176564,
        "b": 0.278431386,
        "a": 1.0
      },
      "outputModuleId": 10,
      "outputId": 3,
      "inputModuleId": 9,
      "inputId": 2
    },
    {
      "color": {
        "r": 0.788235366,
        "g": 0.717647076,
        "b": 0.054901965,
        "a": 1.0
      },
      "outputModuleId": 8,
      "outputId": 5,
      "inputModuleId": 6,
      "inputId": 9
    },
    {
      "color": {
        "r": 0.788235366,
        "g": 0.0941176564,
        "b": 0.278431386,
        "a": 1.0
      },
      "outputModuleId": 8,
      "outputId": 3,
      "inputModuleId": 4,
      "inputId": 0
    },
    {
      "color": {
        "r": 0.0470588282,
        "g": 0.556862772,
        "b": 0.0823529437,
        "a": 1.0
      },
      "outputModuleId": 8,
      "outputId": 4,
      "inputModuleId": 5,
      "inputId": 0
    },
    {
      "color": {
        "r": 0.0352941193,
        "g": 0.525490224,
        "b": 0.678431392,
        "a": 1.0
      },
      "outputModuleId": 9,
      "outputId": 2,
      "inputModuleId": 5,
      "inputId": 8
    },
    {
      "color": {
        "r": 0.788235366,
        "g": 0.717647076,
        "b": 0.054901965,
        "a": 1.0
      },
      "outputModuleId": 10,
      "outputId": 2,
      "inputModuleId": 4,
      "inputId": 8
    },
    {
      "color": {
        "r": 0.0352941193,
        "g": 0.525490224,
        "b": 0.678431392,
        "a": 1.0
      },
      "outputModuleId": 4,
      "outputId": 0,
      "inputModuleId": 2,
      "inputId": 7
    },
    {
      "color": {
        "r": 0.788235366,
        "g": 0.717647076,
        "b": 0.054901965,
        "a": 1.0
      },
      "outputModuleId": 4,
      "outputId": 1,
      "inputModuleId": 2,
      "inputId": 10
    },
    {
      "color": {
        "r": 0.0470588282,
        "g": 0.556862772,
        "b": 0.0823529437,
        "a": 1.0
      },
      "outputModuleId": 11,
      "outputId": 0,
      "inputModuleId": 2,
      "inputId": 2
    },
    {
      "color": {
        "r": 0.0352941193,
        "g": 0.525490224,
        "b": 0.678431392,
        "a": 1.0
      },
      "outputModuleId": 11,
      "outputId": 0,
      "inputModuleId": 2,
      "inputId": 5
    },
    {
      "color": {
        "r": 0.788235366,
        "g": 0.717647076,
        "b": 0.054901965,
        "a": 1.0
      },
      "outputModuleId": 11,
      "outputId": 4,
      "inputModuleId": 2,
      "inputId": 8
    },
    {
      "color": {
        "r": 0.788235366,
        "g": 0.0941176564,
        "b": 0.278431386,
        "a": 1.0
      },
      "outputModuleId": 11,
      "outputId": 4,
      "inputModuleId": 2,
      "inputId": 11
    }
  ]
}