{
  "version": "0.6.0",
  "modules": [
    {
      "plugin": "Valley",
      "version": "0.6.3",
      "model": "Topograph",
      "pos": [
        48,
        1
      ],
      "params": [
        {
          "paramId": 2,
          "value": 0.40599978
        },
        {
          "paramId": 3,
          "value": 0.208500028
        },
        {
          "paramId": 4,
          "value": 0.0
        },
        {
          "paramId": 5,
          "value": 0.0855000094
        },
        {
          "paramId": 6,
          "value": 0.5
        },
        {
          "paramId": 7,
          "value": 0.5
        },
        {
          "paramId": 8,
          "value": 0.5
        },
        {
          "paramId": 9,
          "value": 0.0
        },
        {
          "paramId": 0,
          "value": 0.0
        },
        {
          "paramId": 1,
          "value": 0.0
        }
      ],
      "data": {
        "sequencerMode": 0,
        "triggerOutputMode": 0,
        "accOutputMode": 0,
        "extClockResolution": 2,
        "chaosKnobMode": 0,
        "runMode": 0,
        "panelStyle": 1,
        "running": 1
      }
    },
    {
      "plugin": "Core",
      "version": "0.6.0",
      "model": "AudioInterface",
      "pos": [
        0,
        0
      ],
      "params": [],
      "data": {
        "audio": {
          "driver": 5,
          "deviceName": "Apple Inc.: Built-in Output",
          "offset": 0,
          "maxChannels": 8,
          "sampleRate": 44100,
          "blockSize": 256
        }
      }
    },
    {
      "plugin": "AudibleInstruments",
      "version": "0.6.0",
      "model": "Braids",
      "pos": [
        0,
        1
      ],
      "params": [
        {
          "paramId": 6,
          "value": 0.736500978
        },
        {
          "paramId": 0,
          "value": 0.0
        },
        {
          "paramId": 1,
          "value": -1.50000012
        },
        {
          "paramId": 2,
          "value": 0.0
        },
        {
          "paramId": 3,
          "value": 0.332499892
        },
        {
          "paramId": 4,
          "value": 0.0
        },
        {
          "paramId": 5,
          "value": 0.789499819
        }
      ],
      "data": {
        "settings": [
          34,
          0,
          0,
          0,
          0,
          0,
          0,
          0,
          0,
          0,
          0,
          0,
          0,
          0,
          0,
          0,
          0,
          0,
          0,
          0
        ],
        "lowCpu": false
      }
    },
    {
      "plugin": "Koralfx-Modules",
      "version": "0.6.9",
      "model": "Mixovnik",
      "pos": [
        10,
        0
      ],
      "params": [
        {
          "paramId": 33,
          "value": 0.0
        },
        {
          "paramId": 49,
          "value": 0.0
        },
        {
          "paramId": 17,
          "value": -0.281999946
        },
        {
          "paramId": 65,
          "value": 0.899999976
        },
        {
          "paramId": 81,
          "value": 0.0
        },
        {
          "paramId": 9,
          "value": 0.0
        },
        {
          "paramId": 97,
          "value": 0.0
        },
        {
          "paramId": 34,
          "value": 0.0
        },
        {
          "paramId": 50,
          "value": 0.0
        },
        {
          "paramId": 18,
          "value": 0.195000008
        },
        {
          "paramId": 66,
          "value": 0.899999976
        },
        {
          "paramId": 82,
          "value": 0.0
        },
        {
          "paramId": 98,
          "value": 0.0
        },
        {
          "paramId": 35,
          "value": 0.0
        },
        {
          "paramId": 51,
          "value": 0.0
        },
        {
          "paramId": 19,
          "value": 0.0
        },
        {
          "paramId": 67,
          "value": 0.899999976
        },
        {
          "paramId": 83,
          "value": 0.0
        },
        {
          "paramId": 10,
          "value": 0.0
        },
        {
          "paramId": 99,
          "value": 0.0
        },
        {
          "paramId": 36,
          "value": 0.0
        },
        {
          "paramId": 52,
          "value": 0.0
        },
        {
          "paramId": 20,
          "value": 0.0
        },
        {
          "paramId": 68,
          "value": 0.899999976
        },
        {
          "paramId": 84,
          "value": 0.0
        },
        {
          "paramId": 100,
          "value": 0.0
        },
        {
          "paramId": 37,
          "value": 0.0
        },
        {
          "paramId": 53,
          "value": 0.0
        },
        {
          "paramId": 21,
          "value": 0.0
        },
        {
          "paramId": 69,
          "value": 0.899999976
        },
        {
          "paramId": 85,
          "value": 0.0
        },
        {
          "paramId": 11,
          "value": 0.0
        },
        {
          "paramId": 101,
          "value": 0.0
        },
        {
          "paramId": 38,
          "value": 0.0
        },
        {
          "paramId": 54,
          "value": 0.0
        },
        {
          "paramId": 22,
          "value": 0.0
        },
        {
          "paramId": 70,
          "value": 0.899999976
        },
        {
          "paramId": 86,
          "value": 1.0
        },
        {
          "paramId": 102,
          "value": 0.0
        },
        {
          "paramId": 39,
          "value": 0.0
        },
        {
          "paramId": 55,
          "value": 0.0
        },
        {
          "paramId": 23,
          "value": 0.0
        },
        {
          "paramId": 71,
          "value": 0.899999976
        },
        {
          "paramId": 87,
          "value": 0.0
        },
        {
          "paramId": 12,
          "value": 0.0
        },
        {
          "paramId": 103,
          "value": 0.0
        },
        {
          "paramId": 40,
          "value": 0.0
        },
        {
          "paramId": 56,
          "value": 0.0
        },
        {
          "paramId": 24,
          "value": 0.0
        },
        {
          "paramId": 72,
          "value": 0.899999976
        },
        {
          "paramId": 88,
          "value": 0.0
        },
        {
          "paramId": 104,
          "value": 0.0
        },
        {
          "paramId": 41,
          "value": 0.0
        },
        {
          "paramId": 57,
          "value": 0.0
        },
        {
          "paramId": 25,
          "value": 0.0
        },
        {
          "paramId": 73,
          "value": 0.899999976
        },
        {
          "paramId": 89,
          "value": 0.0
        },
        {
          "paramId": 13,
          "value": 0.0
        },
        {
          "paramId": 105,
          "value": 0.0
        },
        {
          "paramId": 42,
          "value": 0.0
        },
        {
          "paramId": 58,
          "value": 0.0
        },
        {
          "paramId": 26,
          "value": 0.0
        },
        {
          "paramId": 74,
          "value": 0.899999976
        },
        {
          "paramId": 90,
          "value": 0.0
        },
        {
          "paramId": 106,
          "value": 0.0
        },
        {
          "paramId": 43,
          "value": 0.0
        },
        {
          "paramId": 59,
          "value": 0.0
        },
        {
          "paramId": 27,
          "value": 0.0
        },
        {
          "paramId": 75,
          "value": 0.899999976
        },
        {
          "paramId": 91,
          "value": 0.0
        },
        {
          "paramId": 14,
          "value": 0.0
        },
        {
          "paramId": 107,
          "value": 0.0
        },
        {
          "paramId": 44,
          "value": 0.0
        },
        {
          "paramId": 60,
          "value": 0.0
        },
        {
          "paramId": 28,
          "value": 0.0
        },
        {
          "paramId": 76,
          "value": 0.899999976
        },
        {
          "paramId": 92,
          "value": 0.0
        },
        {
          "paramId": 108,
          "value": 0.0
        },
        {
          "paramId": 45,
          "value": 0.0
        },
        {
          "paramId": 61,
          "value": 0.0
        },
        {
          "paramId": 29,
          "value": 0.0
        },
        {
          "paramId": 77,
          "value": 0.899999976
        },
        {
          "paramId": 93,
          "value": 0.0
        },
        {
          "paramId": 15,
          "value": 0.0
        },
        {
          "paramId": 109,
          "value": 0.0
        },
        {
          "paramId": 46,
          "value": 0.0
        },
        {
          "paramId": 62,
          "value": 0.0
        },
        {
          "paramId": 30,
          "value": 0.0
        },
        {
          "paramId": 78,
          "value": 0.899999976
        },
        {
          "paramId": 94,
          "value": 0.0
        },
        {
          "paramId": 110,
          "value": 0.0
        },
        {
          "paramId": 47,
          "value": 0.0
        },
        {
          "paramId": 63,
          "value": 0.0
        },
        {
          "paramId": 31,
          "value": 0.0
        },
        {
          "paramId": 79,
          "value": 0.899999976
        },
        {
          "paramId": 95,
          "value": 0.0
        },
        {
          "paramId": 16,
          "value": 0.0
        },
        {
          "paramId": 111,
          "value": 0.0
        },
        {
          "paramId": 48,
          "value": 0.0
        },
        {
          "paramId": 64,
          "value": 0.0
        },
        {
          "paramId": 32,
          "value": 0.0
        },
        {
          "paramId": 80,
          "value": 0.899999976
        },
        {
          "paramId": 96,
          "value": 0.0
        },
        {
          "paramId": 112,
          "value": 0.0
        },
        {
          "paramId": 0,
          "value": 0.899999976
        },
        {
          "paramId": 1,
          "value": 0.899999976
        },
        {
          "paramId": 2,
          "value": 0.899999976
        },
        {
          "paramId": 3,
          "value": 0.899999976
        },
        {
          "paramId": 5,
          "value": 0.0
        },
        {
          "paramId": 6,
          "value": 0.0
        },
        {
          "paramId": 7,
          "value": 0.0
        },
        {
          "paramId": 8,
          "value": 0.0
        },
        {
          "paramId": 4,
          "value": 0.0
        }
      ],
      "data": {
        "panelStyle": 0
      }
    },
    {
      "plugin": "AudibleInstruments",
      "version": "0.6.0",
      "model": "Braids",
      "pos": [
        16,
        1
      ],
      "params": [
        {
          "paramId": 6,
          "value": 0.784501016
        },
        {
          "paramId": 0,
          "value": 0.0
        },
        {
          "paramId": 1,
          "value": -0.678000152
        },
        {
          "paramId": 2,
          "value": 0.0
        },
        {
          "paramId": 3,
          "value": 0.244000003
        },
        {
          "paramId": 4,
          "value": 0.0
        },
        {
          "paramId": 5,
          "value": 0.686500072
        }
      ],
      "data": {
        "settings": [
          36,
          0,
          0,
          0,
          0,
          0,
          0,
          0,
          0,
          0,
          0,
          0,
          0,
          0,
          0,
          0,
          0,
          0,
          0,
          0
        ],
        "lowCpu": false
      }
    },
    {
      "plugin": "AudibleInstruments",
      "version": "0.6.0",
      "model": "Braids",
      "pos": [
        32,
        1
      ],
      "params": [
        {
          "paramId": 6,
          "value": 0.781501174
        },
        {
          "paramId": 0,
          "value": 0.0
        },
        {
          "paramId": 1,
          "value": 2.0
        },
        {
          "paramId": 2,
          "value": 0.0
        },
        {
          "paramId": 3,
          "value": 0.897999883
        },
        {
          "paramId": 4,
          "value": 0.0
        },
        {
          "paramId": 5,
          "value": 1.0
        }
      ],
      "data": {
        "settings": [
          36,
          0,
          0,
          0,
          0,
          0,
          0,
          0,
          0,
          0,
          0,
          0,
          0,
          0,
          0,
          0,
          0,
          0,
          0,
          0
        ],
        "lowCpu": false
      }
    },
    {
      "plugin": "JW-Modules",
      "version": "0.6.1",
      "model": "FullScope",
      "pos": [
        68,
        0
      ],
      "params": [
        {
          "paramId": 1,
          "value": 0.0
        },
        {
          "paramId": 3,
          "value": 0.0
        },
        {
          "paramId": 0,
          "value": 1.0
        },
        {
          "paramId": 2,
          "value": 1.0
        },
        {
          "paramId": 8,
          "value": 0.0
        },
        {
          "paramId": 4,
          "value": -14.0
        }
      ],
      "data": {
        "lissajous": 1,
        "external": 0
      },
      "width": 255.0
    },
    {
      "plugin": "unless_modules",
      "version": "0.6.1",
      "model": "piong",
      "pos": [
        85,
        0
      ],
      "params": [
        {
          "paramId": 5,
          "value": 1.0
        },
        {
          "paramId": 0,
          "value": 0.5
        },
        {
          "paramId": 2,
          "value": 0.150000006
        },
        {
          "paramId": 3,
          "value": 0.150000006
        },
        {
          "paramId": 1,
          "value": 0.5
        }
      ]
    },
    {
      "plugin": "JW-Modules",
      "version": "0.6.1",
      "model": "SimpleClock",
      "pos": [
        99,
        0
      ],
      "params": [
        {
          "paramId": 1,
          "value": 0.0
        },
        {
          "paramId": 0,
          "value": 6.0
        },
        {
          "paramId": 3,
          "value": 0.0
        },
        {
          "paramId": 2,
          "value": -2.0
        }
      ],
      "data": {
        "running": true
      }
    },
    {
      "plugin": "Fundamental",
      "version": "0.6.0",
      "model": "LFO",
      "pos": [
        64,
        1
      ],
      "params": [
        {
          "paramId": 0,
          "value": 1.0
        },
        {
          "paramId": 1,
          "value": 1.0
        },
        {
          "paramId": 2,
          "value": -1.86100018
        },
        {
          "paramId": 3,
          "value": 0.0
        },
        {
          "paramId": 5,
          "value": 0.5
        },
        {
          "paramId": 4,
          "value": 0.0
        },
        {
          "paramId": 6,
          "value": 0.0
        }
      ]
    },
    {
      "plugin": "AudibleInstruments",
      "version": "0.6.0",
      "model": "Rings",
      "pos": [
        74,
        1
      ],
      "params": [
        {
          "paramId": 0,
          "value": 0.0
        },
        {
          "paramId": 1,
          "value": 0.0
        },
        {
          "paramId": 2,
          "value": 30.0
        },
        {
          "paramId": 3,
          "value": 0.5
        },
        {
          "paramId": 4,
          "value": 0.5
        },
        {
          "paramId": 5,
          "value": 0.5
        },
        {
          "paramId": 6,
          "value": 0.493999928
        },
        {
          "paramId": 7,
          "value": 0.0
        },
        {
          "paramId": 8,
          "value": 0.0
        },
        {
          "paramId": 9,
          "value": 0.0
        },
        {
          "paramId": 10,
          "value": 0.0
        },
        {
          "paramId": 11,
          "value": 0.0
        }
      ],
      "data": {
        "polyphony": 0,
        "model": 0,
        "easterEgg": false
      }
    },
    {
      "plugin": "BaconMusic",
      "version": "0.6.2",
      "model": "Glissinator",
      "pos": [
        88,
        1
      ],
      "params": [
        {
          "paramId": 0,
          "value": 0.35800001
        }
      ]
    },
    {
      "plugin": "Fundamental",
      "version": "0.6.0",
      "model": "VCO",
      "pos": [
        93,
        1
      ],
      "params": [
        {
          "paramId": 0,
          "value": 1.0
        },
        {
          "paramId": 1,
          "value": 1.0
        },
        {
          "paramId": 2,
          "value": 0.0
        },
        {
          "paramId": 3,
          "value": 0.0
        },
        {
          "paramId": 5,
          "value": 0.5
        },
        {
          "paramId": 4,
          "value": 0.0
        },
        {
          "paramId": 6,
          "value": 0.0
        }
      ]
    }
  ],
  "wires": [
    {
      "color": {
        "r": 0.788235366,
        "g": 0.0941176564,
        "b": 0.278431386,
        "a": 1.0
      },
      "outputModuleId": 3,
      "outputId": 0,
      "inputModuleId": 1,
      "inputId": 0
    },
    {
      "color": {
        "r": 0.0470588282,
        "g": 0.556862772,
        "b": 0.0823529437,
        "a": 1.0
      },
      "outputModuleId": 3,
      "outputId": 1,
      "inputModuleId": 1,
      "inputId": 1
    },
    {
      "color": {
        "r": 0.0352941193,
        "g": 0.525490224,
        "b": 0.678431392,
        "a": 1.0
      },
      "outputModuleId": 2,
      "outputId": 0,
      "inputModuleId": 3,
      "inputId": 6
    },
    {
      "color": {
        "r": 0.788235366,
        "g": 0.0941176564,
        "b": 0.278431386,
        "a": 1.0
      },
      "outputModuleId": 4,
      "outputId": 0,
      "inputModuleId": 3,
      "inputId": 7
    },
    {
      "color": {
        "r": 0.788235366,
        "g": 0.717647076,
        "b": 0.054901965,
        "a": 1.0
      },
      "outputModuleId": 3,
      "outputId": 0,
      "inputModuleId": 6,
      "inputId": 0
    },
    {
      "color": {
        "r": 0.788235366,
        "g": 0.0941176564,
        "b": 0.278431386,
        "a": 1.0
      },
      "outputModuleId": 3,
      "outputId": 1,
      "inputModuleId": 6,
      "inputId": 1
    },
    {
      "color": {
        "r": 0.0470588282,
        "g": 0.556862772,
        "b": 0.0823529437,
        "a": 1.0
      },
      "outputModuleId": 5,
      "outputId": 0,
      "inputModuleId": 3,
      "inputId": 8
    },
    {
      "color": {
        "r": 0.788235366,
        "g": 0.717647076,
        "b": 0.054901965,
        "a": 1.0
      },
      "outputModuleId": 8,
      "outputId": 0,
      "inputModuleId": 7,
      "inputId": 7
    },
    {
      "color": {
        "r": 0.788235366,
        "g": 0.717647076,
        "b": 0.054901965,
        "a": 1.0
      },
      "outputModuleId": 0,
      "outputId": 0,
      "inputModuleId": 2,
      "inputId": 0
    },
    {
      "color": {
        "r": 0.788235366,
        "g": 0.0941176564,
        "b": 0.278431386,
        "a": 1.0
      },
      "outputModuleId": 0,
      "outputId": 1,
      "inputModuleId": 4,
      "inputId": 0
    },
    {
      "color": {
        "r": 0.0470588282,
        "g": 0.556862772,
        "b": 0.0823529437,
        "a": 1.0
      },
      "outputModuleId": 0,
      "outputId": 2,
      "inputModuleId": 5,
      "inputId": 0
    },
    {
      "color": {
        "r": 0.788235366,
        "g": 0.0941176564,
        "b": 0.278431386,
        "a": 1.0
      },
      "outputModuleId": 7,
      "outputId": 7,
      "inputModuleId": 7,
      "inputId": 0
    },
    {
      "color": {
        "r": 0.788235366,
        "g": 0.0941176564,
        "b": 0.278431386,
        "a": 1.0
      },
      "outputModuleId": 9,
      "outputId": 1,
      "inputModuleId": 7,
      "inputId": 1
    },
    {
      "color": {
        "r": 0.788235366,
        "g": 0.0941176564,
        "b": 0.278431386,
        "a": 1.0
      },
      "outputModuleId": 11,
      "outputId": 0,
      "inputModuleId": 10,
      "inputId": 6
    },
    {
      "color": {
        "r": 0.0470588282,
        "g": 0.556862772,
        "b": 0.0823529437,
        "a": 1.0
      },
      "outputModuleId": 8,
      "outputId": 4,
      "inputModuleId": 10,
      "inputId": 5
    },
    {
      "color": {
        "r": 0.0352941193,
        "g": 0.525490224,
        "b": 0.678431392,
        "a": 1.0
      },
      "outputModuleId": 10,
      "outputId": 0,
      "inputModuleId": 3,
      "inputId": 10
    },
    {
      "color": {
        "r": 0.0352941193,
        "g": 0.525490224,
        "b": 0.678431392,
        "a": 1.0
      },
      "outputModuleId": 12,
      "outputId": 0,
      "inputModuleId": 3,
      "inputId": 11
    },
    {
      "color": {
        "r": 0.788235366,
        "g": 0.717647076,
        "b": 0.054901965,
        "a": 1.0
      },
      "outputModuleId": 11,
      "outputId": 0,
      "inputModuleId": 12,
      "inputId": 0
    }
  ]
}